<svg xmlns="http://www.w3.org/2000/svg" xmlns:oryx="http://oryx-editor.org" id="_D4C00905-D76A-4752-A344-741110A98FC9" width="3000" height="2000" xmlns:xlink="http://www.w3.org/1999/xlink" xmlns:svg="http://www.w3.org/2000/svg"><defs><marker id="_DCC8F7C5-88B3-423E-B3DE-32A5289DBA5Dstart" refX="1" refY="5" markerUnits="userSpaceOnUse" markerWidth="17" markerHeight="11" orient="auto" fill="#000000" stroke="#000000">
	  		<path id="_DCC8F7C5-88B3-423E-B3DE-32A5289DBA5Dconditional" d="M 0 5 L 8 0 L 16 5 L 8 10 L 0 5" fill="white" stroke="#000000" stroke-width="1" display="none"/>
			<path id="_DCC8F7C5-88B3-423E-B3DE-32A5289DBA5Ddefault" d="M 5 0 L 11 10" fill="white" stroke="#000000" stroke-width="1" display="none"/>
	  	</marker><marker id="_DCC8F7C5-88B3-423E-B3DE-32A5289DBA5Dend" refX="15" refY="6" markerUnits="userSpaceOnUse" markerWidth="15" markerHeight="12" orient="auto" fill="#000000" stroke="#000000">
	  		<path id="_DCC8F7C5-88B3-423E-B3DE-32A5289DBA5Dframe2" d="M 0 1 L 15 6 L 0 11z" fill="#000000" stroke="#000000" stroke-linejoin="round" stroke-width="2"/>
	  	</marker><marker id="_FCF7225F-D32D-48EE-AC9C-7E8BF9956F9Estart" refX="1" refY="5" markerUnits="userSpaceOnUse" markerWidth="17" markerHeight="11" orient="auto" fill="#000000" stroke="#000000">
	  		<path id="_FCF7225F-D32D-48EE-AC9C-7E8BF9956F9Econditional" d="M 0 5 L 8 0 L 16 5 L 8 10 L 0 5" fill="white" stroke="#000000" stroke-width="1" display="none"/>
			<path id="_FCF7225F-D32D-48EE-AC9C-7E8BF9956F9Edefault" d="M 5 0 L 11 10" fill="white" stroke="#000000" stroke-width="1" display="none"/>
	  	</marker><marker id="_FCF7225F-D32D-48EE-AC9C-7E8BF9956F9Eend" refX="15" refY="6" markerUnits="userSpaceOnUse" markerWidth="15" markerHeight="12" orient="auto" fill="#000000" stroke="#000000">
	  		<path id="_FCF7225F-D32D-48EE-AC9C-7E8BF9956F9Eframe2" d="M 0 1 L 15 6 L 0 11z" fill="#000000" stroke="#000000" stroke-linejoin="round" stroke-width="2"/>
	  	</marker><marker id="_BAC28C10-309C-4D1A-ABA4-79543DB2EB95start" refX="1" refY="5" markerUnits="userSpaceOnUse" markerWidth="17" markerHeight="11" orient="auto" fill="#000000" stroke="#000000">
	  		<path id="_BAC28C10-309C-4D1A-ABA4-79543DB2EB95conditional" d="M 0 5 L 8 0 L 16 5 L 8 10 L 0 5" fill="white" stroke="#000000" stroke-width="1" display="none"/>
			<path id="_BAC28C10-309C-4D1A-ABA4-79543DB2EB95default" d="M 5 0 L 11 10" fill="white" stroke="#000000" stroke-width="1" display="none"/>
	  	</marker><marker id="_BAC28C10-309C-4D1A-ABA4-79543DB2EB95end" refX="15" refY="6" markerUnits="userSpaceOnUse" markerWidth="15" markerHeight="12" orient="auto" fill="#000000" stroke="#000000">
	  		<path id="_BAC28C10-309C-4D1A-ABA4-79543DB2EB95frame2" d="M 0 1 L 15 6 L 0 11z" fill="#000000" stroke="#000000" stroke-linejoin="round" stroke-width="2"/>
	  	</marker><marker id="_C9E427CC-348B-424B-B280-CC1673CE7B53start" refX="1" refY="5" markerUnits="userSpaceOnUse" markerWidth="17" markerHeight="11" orient="auto" fill="#000000" stroke="#000000">
	  		<path id="_C9E427CC-348B-424B-B280-CC1673CE7B53conditional" d="M 0 5 L 8 0 L 16 5 L 8 10 L 0 5" fill="white" stroke="#000000" stroke-width="1" display="none"/>
			<path id="_C9E427CC-348B-424B-B280-CC1673CE7B53default" d="M 5 0 L 11 10" fill="white" stroke="#000000" stroke-width="1" display="none"/>
	  	</marker><marker id="_C9E427CC-348B-424B-B280-CC1673CE7B53end" refX="15" refY="6" markerUnits="userSpaceOnUse" markerWidth="15" markerHeight="12" orient="auto" fill="#000000" stroke="#000000">
	  		<path id="_C9E427CC-348B-424B-B280-CC1673CE7B53frame2" d="M 0 1 L 15 6 L 0 11z" fill="#000000" stroke="#000000" stroke-linejoin="round" stroke-width="2"/>
	  	</marker></defs><g stroke="none" font-family="Verdana, sans-serif" font-size-adjust="none" font-style="normal" font-variant="normal" font-weight="normal" line-heigth="normal" font-size="12"><g class="stencils"><g class="me"/><g class="children"><g id="_5C1F3A1F-B668-4FFC-810F-F2673BD43247"><g class="stencils" transform="translate(175, 201)"><g class="me"><g pointer-events="fill" id="_5C1F3A1F-B668-4FFC-810F-F2673BD43247" title="Start Event">
  
    <defs id="_5C1F3A1F-B668-4FFC-810F-F2673BD43247__5C1F3A1F-B668-4FFC-810F-F2673BD43247_5">
		<radialGradient id="_5C1F3A1F-B668-4FFC-810F-F2673BD43247background" cx="10%" cy="10%" r="100%" fx="10%" fy="10%">
			<stop offset="0%" stop-color="#ffffff" stop-opacity="1" id="_5C1F3A1F-B668-4FFC-810F-F2673BD43247__5C1F3A1F-B668-4FFC-810F-F2673BD43247_6"/>
			<stop id="_5C1F3A1F-B668-4FFC-810F-F2673BD43247fill_el" offset="100%" stop-color="#9acd32" stop-opacity="1"/>
		</radialGradient>
	</defs>
	
    <circle id="_5C1F3A1F-B668-4FFC-810F-F2673BD43247bg_frame" cx="15" cy="15" r="15" stroke="#000000" fill="url(#_5C1F3A1F-B668-4FFC-810F-F2673BD43247background) white" stroke-width="1"/>
	<text font-size="11" id="_5C1F3A1F-B668-4FFC-810F-F2673BD43247text_name" x="15" y="32" oryx:align="top center" stroke="black" stroke-width="0pt" letter-spacing="-0.01px" fill="#000000" text-anchor="middle" transform="rotate(0 15 32)" visibility="inherit" oryx:fontSize="11"/>
  </g></g><g class="children" style="overflow:hidden"/><g class="edge"/></g><g class="controls"><g class="dockers"/><g class="magnets" transform="translate(175, 201)"><g pointer-events="all" display="none" transform="translate(7, 7)"><circle cx="8" cy="8" r="4" stroke="none" fill="red" fill-opacity="0.3"/></g></g></g></g><g id="_2444A92A-AD69-4C13-8EA3-8A658C5554CF"><g class="stencils" transform="translate(250, 176)"><g class="me"><g pointer-events="fill" oryx:minimumSize="50 40" id="_2444A92A-AD69-4C13-8EA3-8A658C5554CF" title="Task">
  	<defs id="_2444A92A-AD69-4C13-8EA3-8A658C5554CF__2444A92A-AD69-4C13-8EA3-8A658C5554CF_17">
		<radialGradient id="_2444A92A-AD69-4C13-8EA3-8A658C5554CFbackground" cx="10%" cy="10%" r="100%" fx="10%" fy="10%">
			<stop offset="0%" stop-color="#ffffff" stop-opacity="1" id="_2444A92A-AD69-4C13-8EA3-8A658C5554CF__2444A92A-AD69-4C13-8EA3-8A658C5554CF_18"/>
			<stop id="_2444A92A-AD69-4C13-8EA3-8A658C5554CFfill_el" offset="100%" stop-color="#fafad2" stop-opacity="1"/>
		</radialGradient>
		<radialGradient id="_2444A92A-AD69-4C13-8EA3-8A658C5554CFborderbackground" cx="10%" cy="10%" r="100%" fx="10%" fy="10%">
			<stop offset="0%" stop-color="#ffffff" stop-opacity="1" id="_2444A92A-AD69-4C13-8EA3-8A658C5554CF__2444A92A-AD69-4C13-8EA3-8A658C5554CF_19"/>
			<stop id="_2444A92A-AD69-4C13-8EA3-8A658C5554CFfill_border" offset="100%" stop-color="#000000" stop-opacity="1" stroke="#000000"/>
		</radialGradient>
	</defs>
	
	<rect id="_2444A92A-AD69-4C13-8EA3-8A658C5554CFtext_frame" oryx:anchors="bottom top right left" x="1" y="1" width="94" height="79" rx="10" ry="10" stroke="none" stroke-width="0" fill="none"/>
	<rect id="_2444A92A-AD69-4C13-8EA3-8A658C5554CFbg_frame" oryx:resize="vertical horizontal" x="0" y="0" width="100" height="80" rx="10" ry="10" stroke="#000000" stroke-width="1" fill="url(#_2444A92A-AD69-4C13-8EA3-8A658C5554CFbackground) #ffffcc"/>
		<text font-size="12" id="_2444A92A-AD69-4C13-8EA3-8A658C5554CFtext_name" x="50" y="40" oryx:align="middle center" oryx:fittoelem="text_frame" stroke="black" stroke-width="0pt" letter-spacing="-0.01px" fill="#000000" text-anchor="middle" transform="rotate(0 50 40)" visibility="inherit" oryx:fontSize="12"><tspan x="50" y="40" dy="5">first</tspan></text>
    <g id="_2444A92A-AD69-4C13-8EA3-8A658C5554CFmanualTask" transform="scale(0.7,0.7) translate(8,8)" display="none">
    	<path oryx:anchors="top left" id="_2444A92A-AD69-4C13-8EA3-8A658C5554CFframe" style="opacity:1;fill:none;fill-opacity:1;stroke-width:1" d="M0.5,3.751l4.083-3.25c0,0,11.166,0.083,12.083,0.083s-2.417,2.917-1.5,2.917     s11.667,0,12.584,0c1.166,1.708-0.168,3.167-0.834,3.667s0.875,1.917-1,4.417c-0.75,0.25,0.75,1.875-1.333,3.333     c-1.167,0.583,0.583,1.542-1.25,2.833c-1.167,0-20.833,0.083-20.833,0.083l-2-1.333V3.751z" stroke="#000000"/>
		<path id="_2444A92A-AD69-4C13-8EA3-8A658C5554CFframe2" oryx:anchors="top left" style="opacity:1;fill:none;stroke-width:2" d="M 13.5 7 L 27 7" stroke="#000000"/>
		<path id="_2444A92A-AD69-4C13-8EA3-8A658C5554CFframe3" oryx:anchors="top left" style="opacity:1;fill:none;stroke-width:2" d="M 13.5 11 L 26 11" stroke="#000000"/>
		<path id="_2444A92A-AD69-4C13-8EA3-8A658C5554CFframe4" oryx:anchors="top left" style="opacity:1;fill:none;stroke-width:1.5" d="M 14 14.5 L 25 14.5" stroke="#000000"/>
		<path id="_2444A92A-AD69-4C13-8EA3-8A658C5554CFframe5" oryx:anchors="top left" style="opacity:1;fill:none;stroke-width:1.5" d="M 8.2 3.1 L 15 3.1" stroke="#000000"/>
	</g>
	
	<g id="_2444A92A-AD69-4C13-8EA3-8A658C5554CFbusinessRuleTask" transform="scale(0.7,0.7) translate(8,8)" display="none">
		<rect id="_2444A92A-AD69-4C13-8EA3-8A658C5554CFframe6" oryx:anchors="top left" x="0" y="0" width="22" height="4" style="opacity:1;fill:#B3B1B3;fill-opacity:1;" stroke="#000000"/>
		<rect id="_2444A92A-AD69-4C13-8EA3-8A658C5554CFframe7" oryx:anchors="top left" x="0" y="4" style="opacity:1;fill:none;" width="22" height="12" stroke="#000000"/>
		<path id="_2444A92A-AD69-4C13-8EA3-8A658C5554CFframe8" oryx:anchors="top left" style="opacity:1;fill:none;" d="M 0 10 L 22 10" stroke="#000000"/>
		<path id="_2444A92A-AD69-4C13-8EA3-8A658C5554CFframe9" oryx:anchors="top left" style="opacity:1; fill:none;" d="M 7 4 L 7 16" stroke="#000000"/>
	</g>
	
	<g id="_2444A92A-AD69-4C13-8EA3-8A658C5554CFscriptTask" transform="scale(0.7,0.7) translate(8,8)" display="none">
		<path oryx:anchors="top left" id="_2444A92A-AD69-4C13-8EA3-8A658C5554CFframe10" style="opacity:1;fill:none;" stroke="#000000" d="M6.402,0.5h14.5c0,0-5.833,2.833-5.833,5.583s4.417,6,4.417,9.167    s-4.167,5.083-4.167,5.083H0.235c0,0,5-2.667,5-5s-4.583-6.75-4.583-9.25S6.402,0.5,6.402,0.5z"/>
		<path oryx:anchors="top left" id="_2444A92A-AD69-4C13-8EA3-8A658C5554CFframe11" style="opacity:1;fill:none;stroke-width:1.5" d="M 3.5 4.5 L 13.5 4.5" stroke="#000000"/>
		<path oryx:anchors="top left" id="_2444A92A-AD69-4C13-8EA3-8A658C5554CFframe12" style="opacity:1;fill:none;stroke-width:1.5" d="M 3.8 8.5 L 13.8 8.5" stroke="#000000"/>
		<path oryx:anchors="top left" id="_2444A92A-AD69-4C13-8EA3-8A658C5554CFframe13" style="opacity:1;fill:none;stroke-width:1.5" d="M 6.3 12.5 L 16.3 12.5" stroke="#000000"/>
		<path oryx:anchors="top left" id="_2444A92A-AD69-4C13-8EA3-8A658C5554CFframe14" style="opacity:1;fill:none;stroke-width:1.5" d="M 6.5 16.5 L 16.5 16.5" stroke="#000000"/>
	</g>
	
	<g id="_2444A92A-AD69-4C13-8EA3-8A658C5554CFuserTask" transform="scale(0.7,0.7) translate(8,8)" display="none">
		<path id="_2444A92A-AD69-4C13-8EA3-8A658C5554CFframe15" oryx:anchors="top left" style="opacity:1;fill:#F4F6F7" stroke="#000000" d="M0.585,24.167h24.083v-7.833c0,0-2.333-3.917-7.083-5.167h-9.25    c-4.417,1.333-7.833,5.75-7.833,5.75L0.585,24.167z"/>
		<path id="_2444A92A-AD69-4C13-8EA3-8A658C5554CFframe16" oryx:anchors="top left" style="opacity:1;fill:none" d="M 6 20 L 6 24" stroke="#000000"/>
		<path id="_2444A92A-AD69-4C13-8EA3-8A658C5554CFframe17" oryx:anchors="top left" style="opacity:1;fill:none" d="M 20 20 L 20 24" stroke="#000000"/>
		<circle id="_2444A92A-AD69-4C13-8EA3-8A658C5554CFframe18" oryx:anchors="top left" fill="black" cx="13.002" cy="5.916" r="5.417" stroke="#000000"/>
		<path id="_2444A92A-AD69-4C13-8EA3-8A658C5554CFframe19" oryx:anchors="top left" style="opacity:1;fill:#F0EFF0;" stroke="#000000" d="M8.043,7.083c0,0,2.814-2.426,5.376-1.807s4.624-0.693,4.624-0.693    c0.25,1.688,0.042,3.75-1.458,5.584c0,0,1.083,0.75,1.083,1.5s0.125,1.875-1,3s-5.5,1.25-6.75,0S8.668,12.834,8.668,12    s0.583-1.25,1.25-1.917C8.835,9.5,7.419,7.708,8.043,7.083z"/>
	</g>
	
	<g id="_2444A92A-AD69-4C13-8EA3-8A658C5554CFserviceTask" transform="scale(0.7,0.7) translate(8,8)" display="none">
		<polygon oryx:anchors="top left" id="_2444A92A-AD69-4C13-8EA3-8A658C5554CFframe20" style="opacity:1;fill:#ffffff" stroke="#000000" points="15.392,5.064 17.954,2.502 20.347,4.895 17.786,7.455     18.729,9.732 22.353,9.732 22.353,13.115 18.731,13.115 17.788,15.392 20.351,17.955 17.958,20.347 15.397,17.786 13.12,18.729     13.12,22.353 9.737,22.353 9.737,18.731 7.46,17.788 4.897,20.35 2.506,17.958 5.066,15.397 4.124,13.12 0.5,13.12 0.5,9.737     4.121,9.737 5.065,7.461 2.503,4.898 4.895,2.506 7.455,5.066 9.732,4.125 9.732,0.5 13.116,0.5 13.116,4.121 "/>
		<circle oryx:anchors="top left" id="_2444A92A-AD69-4C13-8EA3-8A658C5554CFframe21" style="opacity:1;fill:none" stroke="#000000" cx="11.427" cy="11.426" r="3.714"/>
		<polygon oryx:anchors="top left" id="_2444A92A-AD69-4C13-8EA3-8A658C5554CFframe22" style="opacity:1;fill:#ffffff" stroke="#000000" points="21.392,11.064 23.954,8.502 26.347,10.895 23.786,13.455     24.729,15.732 28.353,15.732 28.353,19.115 24.731,19.115 23.788,21.392 26.351,23.955 23.958,26.347 21.397,23.786 19.12,24.729     19.12,28.353 15.737,28.353 15.737,24.731 13.46,23.788 10.897,26.35 8.506,23.958 11.066,21.397 10.124,19.12 6.5,19.12     6.5,15.737 10.121,15.737 11.065,13.461 8.503,10.898 10.895,8.506 13.455,11.066 15.732,10.125 15.732,6.5 19.116,6.5     19.116,10.121 "/>
		<circle oryx:anchors="top left" id="_2444A92A-AD69-4C13-8EA3-8A658C5554CFframe23" style="opacity:1;fill:none;" stroke="#000000" cx="17.427" cy="17.426" r="3.714"/>
	</g>
	
	<g id="_2444A92A-AD69-4C13-8EA3-8A658C5554CFsendTask" display="none">
		<path id="_2444A92A-AD69-4C13-8EA3-8A658C5554CFframe24" oryx:anchors="left top" stroke="#000000" fill="black" stroke-width="1" d="M8,11 L8,21 L24,21 L24,11 L16,17z"/>
		<path id="_2444A92A-AD69-4C13-8EA3-8A658C5554CFframe25" oryx:anchors="left top" stroke="#000000" fill="black" stroke-width="1" d="M7,10 L16,17 L25 10z"/>
	</g>
	
	<g id="_2444A92A-AD69-4C13-8EA3-8A658C5554CFreceiveTask" display="none">
		<path id="_2444A92A-AD69-4C13-8EA3-8A658C5554CFframe26" oryx:anchors="left top" stroke="#000000" fill="none" stroke-width="1" d="M8,11 L8,21 L24,21 L24,11z M8,11 L16,17 L24,11"/>
	</g>
	
	<g id="_2444A92A-AD69-4C13-8EA3-8A658C5554CFnone" display="inherit"/>
  </g></g><g class="children" style="overflow:hidden"/><g class="edge"/></g><g class="controls"><g class="dockers"/><g class="magnets" transform="translate(250, 176)"><g pointer-events="all" display="none" transform="translate(-7, 12)"><circle cx="8" cy="8" r="4" stroke="none" fill="red" fill-opacity="0.3"/></g><g pointer-events="all" display="none" transform="translate(-7, 32)"><circle cx="8" cy="8" r="4" stroke="none" fill="red" fill-opacity="0.3"/></g><g pointer-events="all" display="none" transform="translate(-7, 52)"><circle cx="8" cy="8" r="4" stroke="none" fill="red" fill-opacity="0.3"/></g><g pointer-events="all" display="none" transform="translate(17, 71)"><circle cx="8" cy="8" r="4" stroke="none" fill="red" fill-opacity="0.3"/></g><g pointer-events="all" display="none" transform="translate(42, 71)"><circle cx="8" cy="8" r="4" stroke="none" fill="red" fill-opacity="0.3"/></g><g pointer-events="all" display="none" transform="translate(67, 71)"><circle cx="8" cy="8" r="4" stroke="none" fill="red" fill-opacity="0.3"/></g><g pointer-events="all" display="none" transform="translate(91, 12)"><circle cx="8" cy="8" r="4" stroke="none" fill="red" fill-opacity="0.3"/></g><g pointer-events="all" display="none" transform="translate(91, 32)"><circle cx="8" cy="8" r="4" stroke="none" fill="red" fill-opacity="0.3"/></g><g pointer-events="all" display="none" transform="translate(91, 52)"><circle cx="8" cy="8" r="4" stroke="none" fill="red" fill-opacity="0.3"/></g><g pointer-events="all" display="none" transform="translate(17, -7)"><circle cx="8" cy="8" r="4" stroke="none" fill="red" fill-opacity="0.3"/></g><g pointer-events="all" display="none" transform="translate(42, -7)"><circle cx="8" cy="8" r="4" stroke="none" fill="red" fill-opacity="0.3"/></g><g pointer-events="all" display="none" transform="translate(67, -7)"><circle cx="8" cy="8" r="4" stroke="none" fill="red" fill-opacity="0.3"/></g><g pointer-events="all" display="none" transform="translate(42, 32)"><circle cx="8" cy="8" r="4" stroke="none" fill="red" fill-opacity="0.3"/></g></g></g></g><g id="_D9912C1B-A3F4-48F5-B5D3-87BA2839C518"><g class="stencils" transform="translate(395, 201)"><g class="me"><g pointer-events="fill" id="_D9912C1B-A3F4-48F5-B5D3-87BA2839C518" title="Timer Intermediate Event">
  
    <defs id="_D9912C1B-A3F4-48F5-B5D3-87BA2839C518__D9912C1B-A3F4-48F5-B5D3-87BA2839C518_6">
		<radialGradient id="_D9912C1B-A3F4-48F5-B5D3-87BA2839C518background" cx="10%" cy="10%" r="100%" fx="10%" fy="10%">
			<stop offset="0%" stop-color="#ffffff" stop-opacity="1" id="_D9912C1B-A3F4-48F5-B5D3-87BA2839C518__D9912C1B-A3F4-48F5-B5D3-87BA2839C518_7"/>
			<stop id="_D9912C1B-A3F4-48F5-B5D3-87BA2839C518fill_el" offset="100%" stop-color="#f5deb3" stop-opacity="1"/>
		</radialGradient>
	</defs>
    
    <circle id="_D9912C1B-A3F4-48F5-B5D3-87BA2839C518bg_frame" cx="15" cy="15" r="15" stroke="#a0522d" fill="url(#_D9912C1B-A3F4-48F5-B5D3-87BA2839C518background) white" stroke-width="1" style="stroke-dasharray: 5.5, 3"/>
    	
    <circle id="_D9912C1B-A3F4-48F5-B5D3-87BA2839C518frame" cx="15" cy="15" r="12" stroke="#a0522d" fill="none" stroke-width="1" style="stroke-dasharray: 4.5, 3" display="inherit"/>
    
    <circle id="_D9912C1B-A3F4-48F5-B5D3-87BA2839C518frame2" cx="15" cy="15" r="15" stroke="#a0522d" fill="none" stroke-width="1" display="inherit"/>
    <circle id="_D9912C1B-A3F4-48F5-B5D3-87BA2839C518frame3" cx="15" cy="15" r="12" stroke="#a0522d" fill="none" stroke-width="1"/>
    
    <circle id="_D9912C1B-A3F4-48F5-B5D3-87BA2839C518frame4" cx="15" cy="15" r="10" stroke="#a0522d" fill="none" stroke-width="1"/>
    <path id="_D9912C1B-A3F4-48F5-B5D3-87BA2839C518frame5" d=" M15 5  L15 8  M20 6  L18.5 9  M24 10  L21 11.5  M25 15  L22 15  M24 20  L21 18.5  M20 24  L18.5 21  M15 25  L15 22  M10 24  L11.5 21  M6 20  L9 18.5  M5 15  L8 15  M6 10  L9 11.5  M10 6  L11.5 9  M17 8  L15 15  L19 15 " fill="none" stroke="#a0522d"/>
	<text font-size="11" id="_D9912C1B-A3F4-48F5-B5D3-87BA2839C518text_name" x="15" y="32" oryx:align="top center" stroke="black" stroke-width="0pt" letter-spacing="-0.01px" fill="#000000" text-anchor="middle" transform="rotate(0 15 32)" visibility="inherit" oryx:fontSize="11"><tspan x="15" y="32" dy="11">timer</tspan></text>
  </g></g><g class="children" style="overflow:hidden"/><g class="edge"/></g><g class="controls"><g class="dockers"/><g class="magnets" transform="translate(395, 201)"><g pointer-events="all" display="none" transform="translate(7, 7)"><circle cx="8" cy="8" r="4" stroke="none" fill="red" fill-opacity="0.3"/></g></g></g></g><g id="_099826CF-D361-46DA-9CFC-F5101650531F"><g class="stencils" transform="translate(470, 176)"><g class="me"><g pointer-events="fill" oryx:minimumSize="50 40" id="_099826CF-D361-46DA-9CFC-F5101650531F" title="Task">
  	<defs id="_099826CF-D361-46DA-9CFC-F5101650531F__099826CF-D361-46DA-9CFC-F5101650531F_17">
		<radialGradient id="_099826CF-D361-46DA-9CFC-F5101650531Fbackground" cx="10%" cy="10%" r="100%" fx="10%" fy="10%">
			<stop offset="0%" stop-color="#ffffff" stop-opacity="1" id="_099826CF-D361-46DA-9CFC-F5101650531F__099826CF-D361-46DA-9CFC-F5101650531F_18"/>
			<stop id="_099826CF-D361-46DA-9CFC-F5101650531Ffill_el" offset="100%" stop-color="#fafad2" stop-opacity="1"/>
		</radialGradient>
		<radialGradient id="_099826CF-D361-46DA-9CFC-F5101650531Fborderbackground" cx="10%" cy="10%" r="100%" fx="10%" fy="10%">
			<stop offset="0%" stop-color="#ffffff" stop-opacity="1" id="_099826CF-D361-46DA-9CFC-F5101650531F__099826CF-D361-46DA-9CFC-F5101650531F_19"/>
			<stop id="_099826CF-D361-46DA-9CFC-F5101650531Ffill_border" offset="100%" stop-color="#000000" stop-opacity="1" stroke="#000000"/>
		</radialGradient>
	</defs>
	
	<rect id="_099826CF-D361-46DA-9CFC-F5101650531Ftext_frame" oryx:anchors="bottom top right left" x="1" y="1" width="94" height="79" rx="10" ry="10" stroke="none" stroke-width="0" fill="none"/>
	<rect id="_099826CF-D361-46DA-9CFC-F5101650531Fbg_frame" oryx:resize="vertical horizontal" x="0" y="0" width="100" height="80" rx="10" ry="10" stroke="#000000" stroke-width="1" fill="url(#_099826CF-D361-46DA-9CFC-F5101650531Fbackground) #ffffcc"/>
		<text font-size="12" id="_099826CF-D361-46DA-9CFC-F5101650531Ftext_name" x="50" y="40" oryx:align="middle center" oryx:fittoelem="text_frame" stroke="black" stroke-width="0pt" letter-spacing="-0.01px" fill="#000000" text-anchor="middle" transform="rotate(0 50 40)" visibility="inherit" oryx:fontSize="12"><tspan x="50" y="40" dy="5" id="ext-gen667">second</tspan></text>
    <g id="_099826CF-D361-46DA-9CFC-F5101650531FmanualTask" transform="scale(0.7,0.7) translate(8,8)" display="none">
    	<path oryx:anchors="top left" id="_099826CF-D361-46DA-9CFC-F5101650531Fframe" style="opacity:1;fill:none;fill-opacity:1;stroke-width:1" d="M0.5,3.751l4.083-3.25c0,0,11.166,0.083,12.083,0.083s-2.417,2.917-1.5,2.917     s11.667,0,12.584,0c1.166,1.708-0.168,3.167-0.834,3.667s0.875,1.917-1,4.417c-0.75,0.25,0.75,1.875-1.333,3.333     c-1.167,0.583,0.583,1.542-1.25,2.833c-1.167,0-20.833,0.083-20.833,0.083l-2-1.333V3.751z" stroke="#000000"/>
		<path id="_099826CF-D361-46DA-9CFC-F5101650531Fframe2" oryx:anchors="top left" style="opacity:1;fill:none;stroke-width:2" d="M 13.5 7 L 27 7" stroke="#000000"/>
		<path id="_099826CF-D361-46DA-9CFC-F5101650531Fframe3" oryx:anchors="top left" style="opacity:1;fill:none;stroke-width:2" d="M 13.5 11 L 26 11" stroke="#000000"/>
		<path id="_099826CF-D361-46DA-9CFC-F5101650531Fframe4" oryx:anchors="top left" style="opacity:1;fill:none;stroke-width:1.5" d="M 14 14.5 L 25 14.5" stroke="#000000"/>
		<path id="_099826CF-D361-46DA-9CFC-F5101650531Fframe5" oryx:anchors="top left" style="opacity:1;fill:none;stroke-width:1.5" d="M 8.2 3.1 L 15 3.1" stroke="#000000"/>
	</g>
	
	<g id="_099826CF-D361-46DA-9CFC-F5101650531FbusinessRuleTask" transform="scale(0.7,0.7) translate(8,8)" display="none">
		<rect id="_099826CF-D361-46DA-9CFC-F5101650531Fframe6" oryx:anchors="top left" x="0" y="0" width="22" height="4" style="opacity:1;fill:#B3B1B3;fill-opacity:1;" stroke="#000000"/>
		<rect id="_099826CF-D361-46DA-9CFC-F5101650531Fframe7" oryx:anchors="top left" x="0" y="4" style="opacity:1;fill:none;" width="22" height="12" stroke="#000000"/>
		<path id="_099826CF-D361-46DA-9CFC-F5101650531Fframe8" oryx:anchors="top left" style="opacity:1;fill:none;" d="M 0 10 L 22 10" stroke="#000000"/>
		<path id="_099826CF-D361-46DA-9CFC-F5101650531Fframe9" oryx:anchors="top left" style="opacity:1; fill:none;" d="M 7 4 L 7 16" stroke="#000000"/>
	</g>
	
	<g id="_099826CF-D361-46DA-9CFC-F5101650531FscriptTask" transform="scale(0.7,0.7) translate(8,8)" display="none">
		<path oryx:anchors="top left" id="_099826CF-D361-46DA-9CFC-F5101650531Fframe10" style="opacity:1;fill:none;" stroke="#000000" d="M6.402,0.5h14.5c0,0-5.833,2.833-5.833,5.583s4.417,6,4.417,9.167    s-4.167,5.083-4.167,5.083H0.235c0,0,5-2.667,5-5s-4.583-6.75-4.583-9.25S6.402,0.5,6.402,0.5z"/>
		<path oryx:anchors="top left" id="_099826CF-D361-46DA-9CFC-F5101650531Fframe11" style="opacity:1;fill:none;stroke-width:1.5" d="M 3.5 4.5 L 13.5 4.5" stroke="#000000"/>
		<path oryx:anchors="top left" id="_099826CF-D361-46DA-9CFC-F5101650531Fframe12" style="opacity:1;fill:none;stroke-width:1.5" d="M 3.8 8.5 L 13.8 8.5" stroke="#000000"/>
		<path oryx:anchors="top left" id="_099826CF-D361-46DA-9CFC-F5101650531Fframe13" style="opacity:1;fill:none;stroke-width:1.5" d="M 6.3 12.5 L 16.3 12.5" stroke="#000000"/>
		<path oryx:anchors="top left" id="_099826CF-D361-46DA-9CFC-F5101650531Fframe14" style="opacity:1;fill:none;stroke-width:1.5" d="M 6.5 16.5 L 16.5 16.5" stroke="#000000"/>
	</g>
	
	<g id="_099826CF-D361-46DA-9CFC-F5101650531FuserTask" transform="scale(0.7,0.7) translate(8,8)" display="none">
		<path id="_099826CF-D361-46DA-9CFC-F5101650531Fframe15" oryx:anchors="top left" style="opacity:1;fill:#F4F6F7" stroke="#000000" d="M0.585,24.167h24.083v-7.833c0,0-2.333-3.917-7.083-5.167h-9.25    c-4.417,1.333-7.833,5.75-7.833,5.75L0.585,24.167z"/>
		<path id="_099826CF-D361-46DA-9CFC-F5101650531Fframe16" oryx:anchors="top left" style="opacity:1;fill:none" d="M 6 20 L 6 24" stroke="#000000"/>
		<path id="_099826CF-D361-46DA-9CFC-F5101650531Fframe17" oryx:anchors="top left" style="opacity:1;fill:none" d="M 20 20 L 20 24" stroke="#000000"/>
		<circle id="_099826CF-D361-46DA-9CFC-F5101650531Fframe18" oryx:anchors="top left" fill="black" cx="13.002" cy="5.916" r="5.417" stroke="#000000"/>
		<path id="_099826CF-D361-46DA-9CFC-F5101650531Fframe19" oryx:anchors="top left" style="opacity:1;fill:#F0EFF0;" stroke="#000000" d="M8.043,7.083c0,0,2.814-2.426,5.376-1.807s4.624-0.693,4.624-0.693    c0.25,1.688,0.042,3.75-1.458,5.584c0,0,1.083,0.75,1.083,1.5s0.125,1.875-1,3s-5.5,1.25-6.75,0S8.668,12.834,8.668,12    s0.583-1.25,1.25-1.917C8.835,9.5,7.419,7.708,8.043,7.083z"/>
	</g>
	
	<g id="_099826CF-D361-46DA-9CFC-F5101650531FserviceTask" transform="scale(0.7,0.7) translate(8,8)" display="none">
		<polygon oryx:anchors="top left" id="_099826CF-D361-46DA-9CFC-F5101650531Fframe20" style="opacity:1;fill:#ffffff" stroke="#000000" points="15.392,5.064 17.954,2.502 20.347,4.895 17.786,7.455     18.729,9.732 22.353,9.732 22.353,13.115 18.731,13.115 17.788,15.392 20.351,17.955 17.958,20.347 15.397,17.786 13.12,18.729     13.12,22.353 9.737,22.353 9.737,18.731 7.46,17.788 4.897,20.35 2.506,17.958 5.066,15.397 4.124,13.12 0.5,13.12 0.5,9.737     4.121,9.737 5.065,7.461 2.503,4.898 4.895,2.506 7.455,5.066 9.732,4.125 9.732,0.5 13.116,0.5 13.116,4.121 "/>
		<circle oryx:anchors="top left" id="_099826CF-D361-46DA-9CFC-F5101650531Fframe21" style="opacity:1;fill:none" stroke="#000000" cx="11.427" cy="11.426" r="3.714"/>
		<polygon oryx:anchors="top left" id="_099826CF-D361-46DA-9CFC-F5101650531Fframe22" style="opacity:1;fill:#ffffff" stroke="#000000" points="21.392,11.064 23.954,8.502 26.347,10.895 23.786,13.455     24.729,15.732 28.353,15.732 28.353,19.115 24.731,19.115 23.788,21.392 26.351,23.955 23.958,26.347 21.397,23.786 19.12,24.729     19.12,28.353 15.737,28.353 15.737,24.731 13.46,23.788 10.897,26.35 8.506,23.958 11.066,21.397 10.124,19.12 6.5,19.12     6.5,15.737 10.121,15.737 11.065,13.461 8.503,10.898 10.895,8.506 13.455,11.066 15.732,10.125 15.732,6.5 19.116,6.5     19.116,10.121 "/>
		<circle oryx:anchors="top left" id="_099826CF-D361-46DA-9CFC-F5101650531Fframe23" style="opacity:1;fill:none;" stroke="#000000" cx="17.427" cy="17.426" r="3.714"/>
	</g>
	
	<g id="_099826CF-D361-46DA-9CFC-F5101650531FsendTask" display="none">
		<path id="_099826CF-D361-46DA-9CFC-F5101650531Fframe24" oryx:anchors="left top" stroke="#000000" fill="black" stroke-width="1" d="M8,11 L8,21 L24,21 L24,11 L16,17z"/>
		<path id="_099826CF-D361-46DA-9CFC-F5101650531Fframe25" oryx:anchors="left top" stroke="#000000" fill="black" stroke-width="1" d="M7,10 L16,17 L25 10z"/>
	</g>
	
	<g id="_099826CF-D361-46DA-9CFC-F5101650531FreceiveTask" display="none">
		<path id="_099826CF-D361-46DA-9CFC-F5101650531Fframe26" oryx:anchors="left top" stroke="#000000" fill="none" stroke-width="1" d="M8,11 L8,21 L24,21 L24,11z M8,11 L16,17 L24,11"/>
	</g>
	
	<g id="_099826CF-D361-46DA-9CFC-F5101650531Fnone" display="inherit"/>
  </g></g><g class="children" style="overflow:hidden"/><g class="edge"/></g><g class="controls"><g class="dockers"/><g class="magnets" transform="translate(470, 176)"><g pointer-events="all" display="none" transform="translate(-7, 12)"><circle cx="8" cy="8" r="4" stroke="none" fill="red" fill-opacity="0.3"/></g><g pointer-events="all" display="none" transform="translate(-7, 32)"><circle cx="8" cy="8" r="4" stroke="none" fill="red" fill-opacity="0.3"/></g><g pointer-events="all" display="none" transform="translate(-7, 52)"><circle cx="8" cy="8" r="4" stroke="none" fill="red" fill-opacity="0.3"/></g><g pointer-events="all" display="none" transform="translate(17, 71)"><circle cx="8" cy="8" r="4" stroke="none" fill="red" fill-opacity="0.3"/></g><g pointer-events="all" display="none" transform="translate(42, 71)"><circle cx="8" cy="8" r="4" stroke="none" fill="red" fill-opacity="0.3"/></g><g pointer-events="all" display="none" transform="translate(67, 71)"><circle cx="8" cy="8" r="4" stroke="none" fill="red" fill-opacity="0.3"/></g><g pointer-events="all" display="none" transform="translate(91, 12)"><circle cx="8" cy="8" r="4" stroke="none" fill="red" fill-opacity="0.3"/></g><g pointer-events="all" display="none" transform="translate(91, 32)"><circle cx="8" cy="8" r="4" stroke="none" fill="red" fill-opacity="0.3"/></g><g pointer-events="all" display="none" transform="translate(91, 52)"><circle cx="8" cy="8" r="4" stroke="none" fill="red" fill-opacity="0.3"/></g><g pointer-events="all" display="none" transform="translate(17, -7)"><circle cx="8" cy="8" r="4" stroke="none" fill="red" fill-opacity="0.3"/></g><g pointer-events="all" display="none" transform="translate(42, -7)"><circle cx="8" cy="8" r="4" stroke="none" fill="red" fill-opacity="0.3"/></g><g pointer-events="all" display="none" transform="translate(67, -7)"><circle cx="8" cy="8" r="4" stroke="none" fill="red" fill-opacity="0.3"/></g><g pointer-events="all" display="none" transform="translate(42, 32)"><circle cx="8" cy="8" r="4" stroke="none" fill="red" fill-opacity="0.3"/></g></g></g></g><g id="_CDBA8A8A-907E-4F4B-808E-C6DCA1853EDA"><g class="stencils" transform="translate(613, 200)"><g class="me"><g pointer-events="fill" id="_CDBA8A8A-907E-4F4B-808E-C6DCA1853EDA" title="End Event">

    <defs id="_CDBA8A8A-907E-4F4B-808E-C6DCA1853EDA__CDBA8A8A-907E-4F4B-808E-C6DCA1853EDA_5">
		<radialGradient id="_CDBA8A8A-907E-4F4B-808E-C6DCA1853EDAbackground" cx="10%" cy="10%" r="100%" fx="10%" fy="10%">
			<stop offset="0%" stop-color="#ffffff" stop-opacity="1" id="_CDBA8A8A-907E-4F4B-808E-C6DCA1853EDA__CDBA8A8A-907E-4F4B-808E-C6DCA1853EDA_6"/>
			<stop id="_CDBA8A8A-907E-4F4B-808E-C6DCA1853EDAfill_el" offset="100%" stop-color="#ff6347" stop-opacity="1"/>
		</radialGradient>
	</defs>
	
    <circle id="_CDBA8A8A-907E-4F4B-808E-C6DCA1853EDAbg_frame" cx="15" cy="15" r="14" stroke="#000000" fill="url(#_CDBA8A8A-907E-4F4B-808E-C6DCA1853EDAbackground) white" stroke-width="3"/>
	<text font-size="11" id="_CDBA8A8A-907E-4F4B-808E-C6DCA1853EDAtext_name" x="14" y="30" oryx:align="top center" stroke="black" stroke-width="0pt" letter-spacing="-0.01px" fill="#000000" text-anchor="middle" transform="rotate(0 14 30)" visibility="inherit" oryx:fontSize="11"/>
  </g></g><g class="children" style="overflow:hidden"/><g class="edge"/></g><g class="controls"><g class="dockers"/><g class="magnets" transform="translate(613, 200)"><g pointer-events="all" display="none" transform="translate(6, 6)"><circle cx="8" cy="8" r="4" stroke="none" fill="red" fill-opacity="0.3"/></g></g></g></g></g><g class="edge"><g id="_DCC8F7C5-88B3-423E-B3DE-32A5289DBA5D"><g class="stencils"><g class="me" title="Sequence Flow"><g pointer-events="painted"><path id="_DCC8F7C5-88B3-423E-B3DE-32A5289DBA5D_1" d="M205.609375 216L249.15625 216 " stroke="#000000" fill="none" stroke-width="2" stroke-linecap="round" stroke-linejoin="round" marker-start="url(#_DCC8F7C5-88B3-423E-B3DE-32A5289DBA5Dstart)" marker-end="url(#_DCC8F7C5-88B3-423E-B3DE-32A5289DBA5Dend)"/><path id="undefined" d="M205.609375 216L249.15625 216 " stroke="black" fill="none" stroke-width="10" stroke-linecap="round" stroke-linejoin="round" marker-start="url(#_DCC8F7C5-88B3-423E-B3DE-32A5289DBA5Dstart)" marker-end="url(#_DCC8F7C5-88B3-423E-B3DE-32A5289DBA5Dend)" visibility="hidden" stroke-dasharray="none"/></g><text id="_DCC8F7C5-88B3-423E-B3DE-32A5289DBA5Dtext_name" font-size="12" x="219.609375" y="202" oryx:edgePosition="startTop" stroke-width="0pt" letter-spacing="-0.01px" fill="#000000" text-anchor="start" transform="rotate(360 205.609375 216)" visibility="inherit" oryx:fontSize="12"/></g><g class="children" style="overflow:hidden"/><g class="edge"/></g><g class="controls"><g class="dockers"><g visibility="hidden"><g pointer-events="all" transform="translate(197.609375, 208)"><circle cx="8" cy="8" r="8" stroke="none" fill="none" id="ext-gen717"/><circle cx="8" cy="8" r="3" stroke="black" fill="#00FF00" stroke-width="1"/></g><g pointer-events="none" transform="translate(190, 216)"><circle cx="0" cy="0" r="3" fill="red" fill-opacity="0.4"/></g></g><g visibility="hidden"><g pointer-events="all" transform="translate(241.15625, 208)"><circle cx="8" cy="8" r="8" stroke="none" fill="none"/><circle cx="8" cy="8" r="3" stroke="black" fill="#00FF00" stroke-width="1"/></g><g pointer-events="none" transform="translate(300, 216)"><circle cx="0" cy="0" r="3" fill="red" fill-opacity="0.4"/></g></g></g><g class="magnets"/></g></g><g id="_FCF7225F-D32D-48EE-AC9C-7E8BF9956F9E"><g class="stencils"><g class="me" title="Sequence Flow"><g pointer-events="painted"><path id="_FCF7225F-D32D-48EE-AC9C-7E8BF9956F9E_1" d="M350.84375 216L394.390625 216 " stroke="#000000" fill="none" stroke-width="2" stroke-linecap="round" stroke-linejoin="round" marker-start="url(#_FCF7225F-D32D-48EE-AC9C-7E8BF9956F9Estart)" marker-end="url(#_FCF7225F-D32D-48EE-AC9C-7E8BF9956F9Eend)"/><path id="undefined" d="M350.84375 216L394.390625 216 " stroke="black" fill="none" stroke-width="10" stroke-linecap="round" stroke-linejoin="round" marker-start="url(#_FCF7225F-D32D-48EE-AC9C-7E8BF9956F9Estart)" marker-end="url(#_FCF7225F-D32D-48EE-AC9C-7E8BF9956F9Eend)" visibility="hidden" stroke-dasharray="none"/></g><text id="_FCF7225F-D32D-48EE-AC9C-7E8BF9956F9Etext_name" font-size="12" x="364.84375" y="202" oryx:edgePosition="startTop" stroke-width="0pt" letter-spacing="-0.01px" fill="#000000" text-anchor="start" transform="rotate(360 350.84375 216)" visibility="inherit" oryx:fontSize="12"/></g><g class="children" style="overflow:hidden"/><g class="edge"/></g><g class="controls"><g class="dockers"><g visibility="hidden"><g pointer-events="all" transform="translate(342.84375, 208)"><circle cx="8" cy="8" r="8" stroke="none" fill="none"/><circle cx="8" cy="8" r="3" stroke="black" fill="#00FF00" stroke-width="1"/></g><g pointer-events="none" transform="translate(300, 216)"><circle cx="0" cy="0" r="3" fill="red" fill-opacity="0.4"/></g></g><g visibility="hidden"><g pointer-events="all" transform="translate(386.390625, 208)"><circle cx="8" cy="8" r="8" stroke="none" fill="none" id="ext-gen699"/><circle cx="8" cy="8" r="3" stroke="black" fill="#00FF00" stroke-width="1"/></g><g pointer-events="none" transform="translate(410, 216)"><circle cx="0" cy="0" r="3" fill="red" fill-opacity="0.4"/></g></g></g><g class="magnets"/></g></g><g id="_BAC28C10-309C-4D1A-ABA4-79543DB2EB95"><g class="stencils"><g class="me" title="Sequence Flow"><g pointer-events="painted"><path id="_BAC28C10-309C-4D1A-ABA4-79543DB2EB95_1" d="M425.609375 216L469.15625 216 " stroke="#000000" fill="none" stroke-width="2" stroke-linecap="round" stroke-linejoin="round" marker-start="url(#_BAC28C10-309C-4D1A-ABA4-79543DB2EB95start)" marker-end="url(#_BAC28C10-309C-4D1A-ABA4-79543DB2EB95end)"/><path id="undefined" d="M425.609375 216L469.15625 216 " stroke="black" fill="none" stroke-width="10" stroke-linecap="round" stroke-linejoin="round" marker-start="url(#_BAC28C10-309C-4D1A-ABA4-79543DB2EB95start)" marker-end="url(#_BAC28C10-309C-4D1A-ABA4-79543DB2EB95end)" visibility="hidden" stroke-dasharray="none"/></g><text id="_BAC28C10-309C-4D1A-ABA4-79543DB2EB95text_name" font-size="12" x="439.609375" y="202" oryx:edgePosition="startTop" stroke-width="0pt" letter-spacing="-0.01px" fill="#000000" text-anchor="start" transform="rotate(360 425.609375 216)" visibility="inherit" oryx:fontSize="12"/></g><g class="children" style="overflow:hidden"/><g class="edge"/></g><g class="controls"><g class="dockers"><g visibility="hidden"><g pointer-events="all" transform="translate(417.609375, 208)"><circle cx="8" cy="8" r="8" stroke="none" fill="none" id="ext-gen670"/><circle cx="8" cy="8" r="3" stroke="black" fill="#00FF00" stroke-width="1"/></g><g pointer-events="none" transform="translate(410, 216)"><circle cx="0" cy="0" r="3" fill="red" fill-opacity="0.4"/></g></g><g visibility="hidden"><g pointer-events="all" transform="translate(461.15625, 208)"><circle cx="8" cy="8" r="8" stroke="none" fill="none" id="ext-gen669"/><circle cx="8" cy="8" r="3" stroke="black" fill="#00FF00" stroke-width="1" id="ext-gen668"/></g><g pointer-events="none" transform="translate(520, 216)"><circle cx="0" cy="0" r="3" fill="red" fill-opacity="0.4"/></g></g></g><g class="magnets"/></g></g><g id="_C9E427CC-348B-424B-B280-CC1673CE7B53"><g class="stencils"><g class="me" title="Sequence Flow"><g pointer-events="painted"><path id="_C9E427CC-348B-424B-B280-CC1673CE7B53_1" d="M570.3201378580147 215.05943667555113L613.4611121419853 214.25306332444887 " stroke="#000000" fill="none" stroke-width="2" stroke-linecap="round" stroke-linejoin="round" marker-start="url(#_C9E427CC-348B-424B-B280-CC1673CE7B53start)" marker-end="url(#_C9E427CC-348B-424B-B280-CC1673CE7B53end)"/><path id="undefined" d="M570.3201378580147 215.05943667555113L613.4611121419853 214.25306332444887 " stroke="black" fill="none" stroke-width="10" stroke-linecap="round" stroke-linejoin="round" marker-start="url(#_C9E427CC-348B-424B-B280-CC1673CE7B53start)" marker-end="url(#_C9E427CC-348B-424B-B280-CC1673CE7B53end)" visibility="hidden" stroke-dasharray="none"/></g><text id="_C9E427CC-348B-424B-B280-CC1673CE7B53text_name" font-size="12" x="584.3201378580147" y="201.05943667555113" oryx:edgePosition="startTop" stroke-width="0pt" letter-spacing="-0.01px" fill="#000000" text-anchor="start" transform="rotate(358.929175545213 570.3201378580147 215.05943667555113)" visibility="inherit" oryx:fontSize="12"/></g><g class="children" style="overflow:hidden"/><g class="edge"/></g><g class="controls"><g class="dockers"><g visibility="hidden"><g pointer-events="all" transform="translate(562.3201378580147, 207.05943667555113)"><circle cx="8" cy="8" r="8" stroke="none" fill="none"/><circle cx="8" cy="8" r="3" stroke="black" fill="#00FF00" stroke-width="1"/></g><g pointer-events="none" transform="translate(520, 216)"><circle cx="0" cy="0" r="3" fill="red" fill-opacity="0.4"/></g></g><g visibility="hidden"><g pointer-events="all" transform="translate(605.4611121419853, 206.25306332444887)"><circle cx="8" cy="8" r="8" stroke="none" fill="none"/><circle cx="8" cy="8" r="3" stroke="black" fill="#00FF00" stroke-width="1"/></g><g pointer-events="none" transform="translate(627, 214)"><circle cx="0" cy="0" r="3" fill="red" fill-opacity="0.4"/></g></g></g><g class="magnets"/></g></g></g><path id="processFormP1" title="Edit Process Form" style="opacity:1;fill:#339966;stroke:#000000" d="M0.585,24.167h24.083v-7.833c0,0-2.333-3.917-7.083-5.167h-9.25 c-4.417,1.333-7.833,5.75-7.833,5.75L0.585,24.167z" onclick="ORYX.Plugins.CanvasTitle.editProcessForm()" transform="translate(10, 20)"/><path id="processFormP2" title="Edit Process Form" style="opacity:1;fill:none;stroke:#000000" d="M 6 20 L 6 24" onclick="ORYX.Plugins.CanvasTitle.editProcessForm()" transform="translate(10, 20)"/><path id="processFormP3" title="Edit Process Form" style="opacity:1;fill:none;stroke:#000000" d="M 20 20 L 20 24" onclick="ORYX.Plugins.CanvasTitle.editProcessForm()" transform="translate(10, 20)"/><circle id="processFormP4" title="Edit Process Form" fill="#000000" stroke="#000000" cx="13.002" cy="5.916" r="5.417" onclick="ORYX.Plugins.CanvasTitle.editProcessForm()" transform="translate(10, 20)"/><path id="processFormP5" title="Edit Process Form" style="opacity:1;fill:#FFCC99;stroke:#000000" d="M8.043,7.083c0,0,2.814-2.426,5.376-1.807s4.624-0.693,4.624-0.693 c0.25,1.688,0.042,3.75-1.458,5.584c0,0,1.083,0.75,1.083,1.5s0.125,1.875-1,3s-5.5,1.25-6.75,0S8.668,12.834,8.668,12 s0.583-1.25,1.25-1.917C8.835,9.5,7.419,7.708,8.043,7.083z" onclick="ORYX.Plugins.CanvasTitle.editProcessForm()" transform="translate(10, 20)"/><text id="_1BAA48B6-8340-41B2-B373-C80784788E91" style="stroke-width:1;fill:rgb(177,194,214);font-family:arial;font-weight:bold" font-size="12" onclick="ORYX.Plugins.CanvasTitle.openTextualAnalysis()" onmouseover="ORYX.Plugins.CanvasTitle.addToolTip('_1BAA48B6-8340-41B2-B373-C80784788E91')" transform="translate(40, 43)">newprocess-1.0 (processes.newprocess-1.0)</text></g><g class="svgcontainer"><g display="inherit" transform="translate(391, 197)"><rect x="0" y="0" stroke-width="1" stroke="#777777" fill="none" stroke-dasharray="2,2" pointer-events="none" width="38" height="38"/></g><g display="none"><path stroke-width="1" stroke="silver" fill="none" stroke-dasharray="5,5" pointer-events="none"/></g><g display="none"><path stroke-width="1" stroke="silver" fill="none" stroke-dasharray="5,5" pointer-events="none"/></g><g/></g></g></svg>