<svg xmlns="http://www.w3.org/2000/svg" xmlns:oryx="http://oryx-editor.org" id="_D2B722E3-DB60-4AE6-972D-381E77DE8332" width="3000" height="2000" xmlns:xlink="http://www.w3.org/1999/xlink" xmlns:svg="http://www.w3.org/2000/svg"><defs><marker id="_1387F673-2E34-4247-A5A5-02EEA69C527Bstart" refX="1" refY="5" markerUnits="userSpaceOnUse" markerWidth="17" markerHeight="11" orient="auto" fill="#000000" stroke="#000000">
	  		<path id="_1387F673-2E34-4247-A5A5-02EEA69C527Bconditional" d="M 0 5 L 8 0 L 16 5 L 8 10 L 0 5" fill="white" stroke="#000000" stroke-width="1" display="none"/>
			<path id="_1387F673-2E34-4247-A5A5-02EEA69C527Bdefault" d="M 5 0 L 11 10" fill="white" stroke="#000000" stroke-width="1" display="none"/>
	  	</marker><marker id="_1387F673-2E34-4247-A5A5-02EEA69C527Bend" refX="15" refY="6" markerUnits="userSpaceOnUse" markerWidth="15" markerHeight="12" orient="auto" fill="#000000" stroke="#000000">
	  		<path id="_1387F673-2E34-4247-A5A5-02EEA69C527Bframe2" d="M 0 1 L 15 6 L 0 11z" fill="#000000" stroke="#000000" stroke-linejoin="round" stroke-width="2"/>
	  	</marker><marker id="_DBCB1427-1DD9-446D-8FA5-E5C6614841DFstart" refX="1" refY="5" markerUnits="userSpaceOnUse" markerWidth="17" markerHeight="11" orient="auto" fill="#000000" stroke="#000000">
	  		<path id="_DBCB1427-1DD9-446D-8FA5-E5C6614841DFconditional" d="M 0 5 L 8 0 L 16 5 L 8 10 L 0 5" fill="white" stroke="#000000" stroke-width="1" display="none"/>
			<path id="_DBCB1427-1DD9-446D-8FA5-E5C6614841DFdefault" d="M 5 0 L 11 10" fill="white" stroke="#000000" stroke-width="1" display="none"/>
	  	</marker><marker id="_DBCB1427-1DD9-446D-8FA5-E5C6614841DFend" refX="15" refY="6" markerUnits="userSpaceOnUse" markerWidth="15" markerHeight="12" orient="auto" fill="#000000" stroke="#000000">
	  		<path id="_DBCB1427-1DD9-446D-8FA5-E5C6614841DFframe2" d="M 0 1 L 15 6 L 0 11z" fill="#000000" stroke="#000000" stroke-linejoin="round" stroke-width="2"/>
	  	</marker><marker id="_B50BED1C-AF6A-43A4-A18C-1C086A8F4A9Bstart" refX="1" refY="5" markerUnits="userSpaceOnUse" markerWidth="17" markerHeight="11" orient="auto" fill="#000000" stroke="#000000">
	  		<path id="_B50BED1C-AF6A-43A4-A18C-1C086A8F4A9Bconditional" d="M 0 5 L 8 0 L 16 5 L 8 10 L 0 5" fill="white" stroke="#000000" stroke-width="1" display="none"/>
			<path id="_B50BED1C-AF6A-43A4-A18C-1C086A8F4A9Bdefault" d="M 5 0 L 11 10" fill="white" stroke="#000000" stroke-width="1" display="none"/>
	  	</marker><marker id="_B50BED1C-AF6A-43A4-A18C-1C086A8F4A9Bend" refX="15" refY="6" markerUnits="userSpaceOnUse" markerWidth="15" markerHeight="12" orient="auto" fill="#000000" stroke="#000000">
	  		<path id="_B50BED1C-AF6A-43A4-A18C-1C086A8F4A9Bframe2" d="M 0 1 L 15 6 L 0 11z" fill="#000000" stroke="#000000" stroke-linejoin="round" stroke-width="2"/>
	  	</marker><marker id="_C12029F9-66CB-40C7-B6EA-CD18FC463CF9start" refX="1" refY="5" markerUnits="userSpaceOnUse" markerWidth="17" markerHeight="11" orient="auto" fill="#000000" stroke="#000000">
	  		<path id="_C12029F9-66CB-40C7-B6EA-CD18FC463CF9conditional" d="M 0 5 L 8 0 L 16 5 L 8 10 L 0 5" fill="white" stroke="#000000" stroke-width="1" display="none"/>
			<path id="_C12029F9-66CB-40C7-B6EA-CD18FC463CF9default" d="M 5 0 L 11 10" fill="white" stroke="#000000" stroke-width="1" display="none"/>
	  	</marker><marker id="_C12029F9-66CB-40C7-B6EA-CD18FC463CF9end" refX="15" refY="6" markerUnits="userSpaceOnUse" markerWidth="15" markerHeight="12" orient="auto" fill="#000000" stroke="#000000">
	  		<path id="_C12029F9-66CB-40C7-B6EA-CD18FC463CF9frame2" d="M 0 1 L 15 6 L 0 11z" fill="#000000" stroke="#000000" stroke-linejoin="round" stroke-width="2"/>
	  	</marker></defs><g stroke="none" font-family="Verdana, sans-serif" font-size-adjust="none" font-style="normal" font-variant="normal" font-weight="normal" line-heigth="normal" font-size="12"><g class="stencils"><g class="me"/><g class="children"><g id="_D4644CF4-B9A4-4025-AFDC-F6030DB9A227"><g class="stencils" transform="translate(175, 201)"><g class="me"><g pointer-events="fill" id="_D4644CF4-B9A4-4025-AFDC-F6030DB9A227" title="Start Event">
  
    <defs id="_D4644CF4-B9A4-4025-AFDC-F6030DB9A227__D4644CF4-B9A4-4025-AFDC-F6030DB9A227_5">
		<radialGradient id="_D4644CF4-B9A4-4025-AFDC-F6030DB9A227background" cx="10%" cy="10%" r="100%" fx="10%" fy="10%">
			<stop offset="0%" stop-color="#ffffff" stop-opacity="1" id="_D4644CF4-B9A4-4025-AFDC-F6030DB9A227__D4644CF4-B9A4-4025-AFDC-F6030DB9A227_6"/>
			<stop id="_D4644CF4-B9A4-4025-AFDC-F6030DB9A227fill_el" offset="100%" stop-color="#9acd32" stop-opacity="1"/>
		</radialGradient>
	</defs>
	
    <circle id="_D4644CF4-B9A4-4025-AFDC-F6030DB9A227bg_frame" cx="15" cy="15" r="15" stroke="#000000" fill="url(#_D4644CF4-B9A4-4025-AFDC-F6030DB9A227background) white" stroke-width="1"/>
	<text font-size="11" id="_D4644CF4-B9A4-4025-AFDC-F6030DB9A227text_name" x="15" y="32" oryx:align="top center" stroke="black" stroke-width="0pt" letter-spacing="-0.01px" fill="#000000" text-anchor="middle" transform="rotate(0 15 32)" visibility="inherit" oryx:fontSize="11"/>
  </g></g><g class="children" style="overflow:hidden"/><g class="edge"/></g><g class="controls"><g class="dockers"/><g class="magnets" transform="translate(175, 201)"><g pointer-events="all" display="none" transform="translate(7, 7)"><circle cx="8" cy="8" r="4" stroke="none" fill="red" fill-opacity="0.3"/></g></g></g></g><g id="_5EFCD001-70D4-4B1D-BBE0-09CF83192E0A"><g class="stencils" transform="translate(250, 176)"><g class="me"><g pointer-events="fill" oryx:minimumSize="50 40" id="_5EFCD001-70D4-4B1D-BBE0-09CF83192E0A" title="Task">
  	<defs id="_5EFCD001-70D4-4B1D-BBE0-09CF83192E0A__5EFCD001-70D4-4B1D-BBE0-09CF83192E0A_17">
		<radialGradient id="_5EFCD001-70D4-4B1D-BBE0-09CF83192E0Abackground" cx="10%" cy="10%" r="100%" fx="10%" fy="10%">
			<stop offset="0%" stop-color="#ffffff" stop-opacity="1" id="_5EFCD001-70D4-4B1D-BBE0-09CF83192E0A__5EFCD001-70D4-4B1D-BBE0-09CF83192E0A_18"/>
			<stop id="_5EFCD001-70D4-4B1D-BBE0-09CF83192E0Afill_el" offset="100%" stop-color="#fafad2" stop-opacity="1"/>
		</radialGradient>
		<radialGradient id="_5EFCD001-70D4-4B1D-BBE0-09CF83192E0Aborderbackground" cx="10%" cy="10%" r="100%" fx="10%" fy="10%">
			<stop offset="0%" stop-color="#ffffff" stop-opacity="1" id="_5EFCD001-70D4-4B1D-BBE0-09CF83192E0A__5EFCD001-70D4-4B1D-BBE0-09CF83192E0A_19"/>
			<stop id="_5EFCD001-70D4-4B1D-BBE0-09CF83192E0Afill_border" offset="100%" stop-color="#000000" stop-opacity="1" stroke="#000000"/>
		</radialGradient>
	</defs>
	
	<rect id="_5EFCD001-70D4-4B1D-BBE0-09CF83192E0Atext_frame" oryx:anchors="bottom top right left" x="1" y="1" width="94" height="79" rx="10" ry="10" stroke="none" stroke-width="0" fill="none"/>
	<rect id="_5EFCD001-70D4-4B1D-BBE0-09CF83192E0Abg_frame" oryx:resize="vertical horizontal" x="0" y="0" width="100" height="80" rx="10" ry="10" stroke="#000000" stroke-width="1" fill="url(#_5EFCD001-70D4-4B1D-BBE0-09CF83192E0Abackground) #ffffcc"/>
		<text font-size="12" id="_5EFCD001-70D4-4B1D-BBE0-09CF83192E0Atext_name" x="50" y="40" oryx:align="middle center" oryx:fittoelem="text_frame" stroke="black" stroke-width="0pt" letter-spacing="-0.01px" fill="#000000" text-anchor="middle" transform="rotate(0 50 40)" visibility="inherit" oryx:fontSize="12"/>
    <g id="_5EFCD001-70D4-4B1D-BBE0-09CF83192E0AmanualTask" transform="scale(0.7,0.7) translate(8,8)" display="none">
    	<path oryx:anchors="top left" id="_5EFCD001-70D4-4B1D-BBE0-09CF83192E0Aframe" style="opacity:1;fill:none;fill-opacity:1;stroke-width:1" d="M0.5,3.751l4.083-3.25c0,0,11.166,0.083,12.083,0.083s-2.417,2.917-1.5,2.917     s11.667,0,12.584,0c1.166,1.708-0.168,3.167-0.834,3.667s0.875,1.917-1,4.417c-0.75,0.25,0.75,1.875-1.333,3.333     c-1.167,0.583,0.583,1.542-1.25,2.833c-1.167,0-20.833,0.083-20.833,0.083l-2-1.333V3.751z" stroke="#000000"/>
		<path id="_5EFCD001-70D4-4B1D-BBE0-09CF83192E0Aframe2" oryx:anchors="top left" style="opacity:1;fill:none;stroke-width:2" d="M 13.5 7 L 27 7" stroke="#000000"/>
		<path id="_5EFCD001-70D4-4B1D-BBE0-09CF83192E0Aframe3" oryx:anchors="top left" style="opacity:1;fill:none;stroke-width:2" d="M 13.5 11 L 26 11" stroke="#000000"/>
		<path id="_5EFCD001-70D4-4B1D-BBE0-09CF83192E0Aframe4" oryx:anchors="top left" style="opacity:1;fill:none;stroke-width:1.5" d="M 14 14.5 L 25 14.5" stroke="#000000"/>
		<path id="_5EFCD001-70D4-4B1D-BBE0-09CF83192E0Aframe5" oryx:anchors="top left" style="opacity:1;fill:none;stroke-width:1.5" d="M 8.2 3.1 L 15 3.1" stroke="#000000"/>
	</g>
	
	<g id="_5EFCD001-70D4-4B1D-BBE0-09CF83192E0AbusinessRuleTask" transform="scale(0.7,0.7) translate(8,8)" display="none">
		<rect id="_5EFCD001-70D4-4B1D-BBE0-09CF83192E0Aframe6" oryx:anchors="top left" x="0" y="0" width="22" height="4" style="opacity:1;fill:#B3B1B3;fill-opacity:1;" stroke="#000000"/>
		<rect id="_5EFCD001-70D4-4B1D-BBE0-09CF83192E0Aframe7" oryx:anchors="top left" x="0" y="4" style="opacity:1;fill:none;" width="22" height="12" stroke="#000000"/>
		<path id="_5EFCD001-70D4-4B1D-BBE0-09CF83192E0Aframe8" oryx:anchors="top left" style="opacity:1;fill:none;" d="M 0 10 L 22 10" stroke="#000000"/>
		<path id="_5EFCD001-70D4-4B1D-BBE0-09CF83192E0Aframe9" oryx:anchors="top left" style="opacity:1; fill:none;" d="M 7 4 L 7 16" stroke="#000000"/>
	</g>
	
	<g id="_5EFCD001-70D4-4B1D-BBE0-09CF83192E0AscriptTask" transform="scale(0.7,0.7) translate(8,8)" display="none">
		<path oryx:anchors="top left" id="_5EFCD001-70D4-4B1D-BBE0-09CF83192E0Aframe10" style="opacity:1;fill:none;" stroke="#000000" d="M6.402,0.5h14.5c0,0-5.833,2.833-5.833,5.583s4.417,6,4.417,9.167    s-4.167,5.083-4.167,5.083H0.235c0,0,5-2.667,5-5s-4.583-6.75-4.583-9.25S6.402,0.5,6.402,0.5z"/>
		<path oryx:anchors="top left" id="_5EFCD001-70D4-4B1D-BBE0-09CF83192E0Aframe11" style="opacity:1;fill:none;stroke-width:1.5" d="M 3.5 4.5 L 13.5 4.5" stroke="#000000"/>
		<path oryx:anchors="top left" id="_5EFCD001-70D4-4B1D-BBE0-09CF83192E0Aframe12" style="opacity:1;fill:none;stroke-width:1.5" d="M 3.8 8.5 L 13.8 8.5" stroke="#000000"/>
		<path oryx:anchors="top left" id="_5EFCD001-70D4-4B1D-BBE0-09CF83192E0Aframe13" style="opacity:1;fill:none;stroke-width:1.5" d="M 6.3 12.5 L 16.3 12.5" stroke="#000000"/>
		<path oryx:anchors="top left" id="_5EFCD001-70D4-4B1D-BBE0-09CF83192E0Aframe14" style="opacity:1;fill:none;stroke-width:1.5" d="M 6.5 16.5 L 16.5 16.5" stroke="#000000"/>
	</g>
	
	<g id="_5EFCD001-70D4-4B1D-BBE0-09CF83192E0AuserTask" transform="scale(0.7,0.7) translate(8,8)" display="none">
		<path id="_5EFCD001-70D4-4B1D-BBE0-09CF83192E0Aframe15" oryx:anchors="top left" style="opacity:1;fill:#F4F6F7" stroke="#000000" d="M0.585,24.167h24.083v-7.833c0,0-2.333-3.917-7.083-5.167h-9.25    c-4.417,1.333-7.833,5.75-7.833,5.75L0.585,24.167z"/>
		<path id="_5EFCD001-70D4-4B1D-BBE0-09CF83192E0Aframe16" oryx:anchors="top left" style="opacity:1;fill:none" d="M 6 20 L 6 24" stroke="#000000"/>
		<path id="_5EFCD001-70D4-4B1D-BBE0-09CF83192E0Aframe17" oryx:anchors="top left" style="opacity:1;fill:none" d="M 20 20 L 20 24" stroke="#000000"/>
		<circle id="_5EFCD001-70D4-4B1D-BBE0-09CF83192E0Aframe18" oryx:anchors="top left" fill="black" cx="13.002" cy="5.916" r="5.417" stroke="#000000"/>
		<path id="_5EFCD001-70D4-4B1D-BBE0-09CF83192E0Aframe19" oryx:anchors="top left" style="opacity:1;fill:#F0EFF0;" stroke="#000000" d="M8.043,7.083c0,0,2.814-2.426,5.376-1.807s4.624-0.693,4.624-0.693    c0.25,1.688,0.042,3.75-1.458,5.584c0,0,1.083,0.75,1.083,1.5s0.125,1.875-1,3s-5.5,1.25-6.75,0S8.668,12.834,8.668,12    s0.583-1.25,1.25-1.917C8.835,9.5,7.419,7.708,8.043,7.083z"/>
	</g>
	
	<g id="_5EFCD001-70D4-4B1D-BBE0-09CF83192E0AserviceTask" transform="scale(0.7,0.7) translate(8,8)" display="none">
		<polygon oryx:anchors="top left" id="_5EFCD001-70D4-4B1D-BBE0-09CF83192E0Aframe20" style="opacity:1;fill:#ffffff" stroke="#000000" points="15.392,5.064 17.954,2.502 20.347,4.895 17.786,7.455     18.729,9.732 22.353,9.732 22.353,13.115 18.731,13.115 17.788,15.392 20.351,17.955 17.958,20.347 15.397,17.786 13.12,18.729     13.12,22.353 9.737,22.353 9.737,18.731 7.46,17.788 4.897,20.35 2.506,17.958 5.066,15.397 4.124,13.12 0.5,13.12 0.5,9.737     4.121,9.737 5.065,7.461 2.503,4.898 4.895,2.506 7.455,5.066 9.732,4.125 9.732,0.5 13.116,0.5 13.116,4.121 "/>
		<circle oryx:anchors="top left" id="_5EFCD001-70D4-4B1D-BBE0-09CF83192E0Aframe21" style="opacity:1;fill:none" stroke="#000000" cx="11.427" cy="11.426" r="3.714"/>
		<polygon oryx:anchors="top left" id="_5EFCD001-70D4-4B1D-BBE0-09CF83192E0Aframe22" style="opacity:1;fill:#ffffff" stroke="#000000" points="21.392,11.064 23.954,8.502 26.347,10.895 23.786,13.455     24.729,15.732 28.353,15.732 28.353,19.115 24.731,19.115 23.788,21.392 26.351,23.955 23.958,26.347 21.397,23.786 19.12,24.729     19.12,28.353 15.737,28.353 15.737,24.731 13.46,23.788 10.897,26.35 8.506,23.958 11.066,21.397 10.124,19.12 6.5,19.12     6.5,15.737 10.121,15.737 11.065,13.461 8.503,10.898 10.895,8.506 13.455,11.066 15.732,10.125 15.732,6.5 19.116,6.5     19.116,10.121 "/>
		<circle oryx:anchors="top left" id="_5EFCD001-70D4-4B1D-BBE0-09CF83192E0Aframe23" style="opacity:1;fill:none;" stroke="#000000" cx="17.427" cy="17.426" r="3.714"/>
	</g>
	
	<g id="_5EFCD001-70D4-4B1D-BBE0-09CF83192E0AsendTask" display="none">
		<path id="_5EFCD001-70D4-4B1D-BBE0-09CF83192E0Aframe24" oryx:anchors="left top" stroke="#000000" fill="black" stroke-width="1" d="M8,11 L8,21 L24,21 L24,11 L16,17z"/>
		<path id="_5EFCD001-70D4-4B1D-BBE0-09CF83192E0Aframe25" oryx:anchors="left top" stroke="#000000" fill="black" stroke-width="1" d="M7,10 L16,17 L25 10z"/>
	</g>
	
	<g id="_5EFCD001-70D4-4B1D-BBE0-09CF83192E0AreceiveTask" display="none">
		<path id="_5EFCD001-70D4-4B1D-BBE0-09CF83192E0Aframe26" oryx:anchors="left top" stroke="#000000" fill="none" stroke-width="1" d="M8,11 L8,21 L24,21 L24,11z M8,11 L16,17 L24,11"/>
	</g>
	
	<g id="_5EFCD001-70D4-4B1D-BBE0-09CF83192E0Anone" display="inherit"/>
  </g></g><g class="children" style="overflow:hidden"/><g class="edge"/></g><g class="controls"><g class="dockers"/><g class="magnets" transform="translate(250, 176)"><g pointer-events="all" display="none" transform="translate(-7, 12)"><circle cx="8" cy="8" r="4" stroke="none" fill="red" fill-opacity="0.3"/></g><g pointer-events="all" display="none" transform="translate(-7, 32)"><circle cx="8" cy="8" r="4" stroke="none" fill="red" fill-opacity="0.3"/></g><g pointer-events="all" display="none" transform="translate(-7, 52)"><circle cx="8" cy="8" r="4" stroke="none" fill="red" fill-opacity="0.3"/></g><g pointer-events="all" display="none" transform="translate(17, 71)"><circle cx="8" cy="8" r="4" stroke="none" fill="red" fill-opacity="0.3"/></g><g pointer-events="all" display="none" transform="translate(42, 71)"><circle cx="8" cy="8" r="4" stroke="none" fill="red" fill-opacity="0.3"/></g><g pointer-events="all" display="none" transform="translate(67, 71)"><circle cx="8" cy="8" r="4" stroke="none" fill="red" fill-opacity="0.3"/></g><g pointer-events="all" display="none" transform="translate(91, 12)"><circle cx="8" cy="8" r="4" stroke="none" fill="red" fill-opacity="0.3"/></g><g pointer-events="all" display="none" transform="translate(91, 32)"><circle cx="8" cy="8" r="4" stroke="none" fill="red" fill-opacity="0.3"/></g><g pointer-events="all" display="none" transform="translate(91, 52)"><circle cx="8" cy="8" r="4" stroke="none" fill="red" fill-opacity="0.3"/></g><g pointer-events="all" display="none" transform="translate(17, -7)"><circle cx="8" cy="8" r="4" stroke="none" fill="red" fill-opacity="0.3"/></g><g pointer-events="all" display="none" transform="translate(42, -7)"><circle cx="8" cy="8" r="4" stroke="none" fill="red" fill-opacity="0.3"/></g><g pointer-events="all" display="none" transform="translate(67, -7)"><circle cx="8" cy="8" r="4" stroke="none" fill="red" fill-opacity="0.3"/></g><g pointer-events="all" display="none" transform="translate(42, 32)"><circle cx="8" cy="8" r="4" stroke="none" fill="red" fill-opacity="0.3"/></g></g></g></g><g id="_C1DD7A8F-C0CE-4B9D-8317-550B704B60A6"><g class="stencils" transform="translate(395, 201)"><g class="me"><g pointer-events="fill" id="_C1DD7A8F-C0CE-4B9D-8317-550B704B60A6" title="Timer Intermediate Event">
  
    <defs id="_C1DD7A8F-C0CE-4B9D-8317-550B704B60A6__C1DD7A8F-C0CE-4B9D-8317-550B704B60A6_6">
		<radialGradient id="_C1DD7A8F-C0CE-4B9D-8317-550B704B60A6background" cx="10%" cy="10%" r="100%" fx="10%" fy="10%">
			<stop offset="0%" stop-color="#ffffff" stop-opacity="1" id="_C1DD7A8F-C0CE-4B9D-8317-550B704B60A6__C1DD7A8F-C0CE-4B9D-8317-550B704B60A6_7"/>
			<stop id="_C1DD7A8F-C0CE-4B9D-8317-550B704B60A6fill_el" offset="100%" stop-color="#f5deb3" stop-opacity="1"/>
		</radialGradient>
	</defs>
    
    <circle id="_C1DD7A8F-C0CE-4B9D-8317-550B704B60A6bg_frame" cx="15" cy="15" r="15" stroke="#a0522d" fill="url(#_C1DD7A8F-C0CE-4B9D-8317-550B704B60A6background) white" stroke-width="1" style="stroke-dasharray: 5.5, 3"/>
    	
    <circle id="_C1DD7A8F-C0CE-4B9D-8317-550B704B60A6frame" cx="15" cy="15" r="12" stroke="#a0522d" fill="none" stroke-width="1" style="stroke-dasharray: 4.5, 3" display="inherit"/>
    
    <circle id="_C1DD7A8F-C0CE-4B9D-8317-550B704B60A6frame2" cx="15" cy="15" r="15" stroke="#a0522d" fill="none" stroke-width="1" display="inherit"/>
    <circle id="_C1DD7A8F-C0CE-4B9D-8317-550B704B60A6frame3" cx="15" cy="15" r="12" stroke="#a0522d" fill="none" stroke-width="1"/>
    
    <circle id="_C1DD7A8F-C0CE-4B9D-8317-550B704B60A6frame4" cx="15" cy="15" r="10" stroke="#a0522d" fill="none" stroke-width="1"/>
    <path id="_C1DD7A8F-C0CE-4B9D-8317-550B704B60A6frame5" d=" M15 5  L15 8  M20 6  L18.5 9  M24 10  L21 11.5  M25 15  L22 15  M24 20  L21 18.5  M20 24  L18.5 21  M15 25  L15 22  M10 24  L11.5 21  M6 20  L9 18.5  M5 15  L8 15  M6 10  L9 11.5  M10 6  L11.5 9  M17 8  L15 15  L19 15 " fill="none" stroke="#a0522d"/>
	<text font-size="11" id="_C1DD7A8F-C0CE-4B9D-8317-550B704B60A6text_name" x="15" y="32" oryx:align="top center" stroke="black" stroke-width="0pt" letter-spacing="-0.01px" fill="#000000" text-anchor="middle" transform="rotate(0 15 32)" visibility="inherit" oryx:fontSize="11"/>
  </g></g><g class="children" style="overflow:hidden"/><g class="edge"/></g><g class="controls"><g class="dockers"/><g class="magnets" transform="translate(395, 201)"><g pointer-events="all" display="none" transform="translate(7, 7)"><circle cx="8" cy="8" r="4" stroke="none" fill="red" fill-opacity="0.3"/></g></g></g></g><g id="_760DFB4D-05EA-47DD-A24E-2C62F6D50D9F"><g class="stencils" transform="translate(470, 176)"><g class="me"><g pointer-events="fill" oryx:minimumSize="50 40" id="_760DFB4D-05EA-47DD-A24E-2C62F6D50D9F" title="Task">
  	<defs id="_760DFB4D-05EA-47DD-A24E-2C62F6D50D9F__760DFB4D-05EA-47DD-A24E-2C62F6D50D9F_17">
		<radialGradient id="_760DFB4D-05EA-47DD-A24E-2C62F6D50D9Fbackground" cx="10%" cy="10%" r="100%" fx="10%" fy="10%">
			<stop offset="0%" stop-color="#ffffff" stop-opacity="1" id="_760DFB4D-05EA-47DD-A24E-2C62F6D50D9F__760DFB4D-05EA-47DD-A24E-2C62F6D50D9F_18"/>
			<stop id="_760DFB4D-05EA-47DD-A24E-2C62F6D50D9Ffill_el" offset="100%" stop-color="#fafad2" stop-opacity="1"/>
		</radialGradient>
		<radialGradient id="_760DFB4D-05EA-47DD-A24E-2C62F6D50D9Fborderbackground" cx="10%" cy="10%" r="100%" fx="10%" fy="10%">
			<stop offset="0%" stop-color="#ffffff" stop-opacity="1" id="_760DFB4D-05EA-47DD-A24E-2C62F6D50D9F__760DFB4D-05EA-47DD-A24E-2C62F6D50D9F_19"/>
			<stop id="_760DFB4D-05EA-47DD-A24E-2C62F6D50D9Ffill_border" offset="100%" stop-color="#000000" stop-opacity="1" stroke="#000000"/>
		</radialGradient>
	</defs>
	
	<rect id="_760DFB4D-05EA-47DD-A24E-2C62F6D50D9Ftext_frame" oryx:anchors="bottom top right left" x="1" y="1" width="94" height="79" rx="10" ry="10" stroke="none" stroke-width="0" fill="none"/>
	<rect id="_760DFB4D-05EA-47DD-A24E-2C62F6D50D9Fbg_frame" oryx:resize="vertical horizontal" x="0" y="0" width="100" height="80" rx="10" ry="10" stroke="#000000" stroke-width="1" fill="url(#_760DFB4D-05EA-47DD-A24E-2C62F6D50D9Fbackground) #ffffcc"/>
		<text font-size="12" id="_760DFB4D-05EA-47DD-A24E-2C62F6D50D9Ftext_name" x="50" y="40" oryx:align="middle center" oryx:fittoelem="text_frame" stroke="black" stroke-width="0pt" letter-spacing="-0.01px" fill="#000000" text-anchor="middle" transform="rotate(0 50 40)" visibility="inherit" oryx:fontSize="12"/>
    <g id="_760DFB4D-05EA-47DD-A24E-2C62F6D50D9FmanualTask" transform="scale(0.7,0.7) translate(8,8)" display="none">
    	<path oryx:anchors="top left" id="_760DFB4D-05EA-47DD-A24E-2C62F6D50D9Fframe" style="opacity:1;fill:none;fill-opacity:1;stroke-width:1" d="M0.5,3.751l4.083-3.25c0,0,11.166,0.083,12.083,0.083s-2.417,2.917-1.5,2.917     s11.667,0,12.584,0c1.166,1.708-0.168,3.167-0.834,3.667s0.875,1.917-1,4.417c-0.75,0.25,0.75,1.875-1.333,3.333     c-1.167,0.583,0.583,1.542-1.25,2.833c-1.167,0-20.833,0.083-20.833,0.083l-2-1.333V3.751z" stroke="#000000"/>
		<path id="_760DFB4D-05EA-47DD-A24E-2C62F6D50D9Fframe2" oryx:anchors="top left" style="opacity:1;fill:none;stroke-width:2" d="M 13.5 7 L 27 7" stroke="#000000"/>
		<path id="_760DFB4D-05EA-47DD-A24E-2C62F6D50D9Fframe3" oryx:anchors="top left" style="opacity:1;fill:none;stroke-width:2" d="M 13.5 11 L 26 11" stroke="#000000"/>
		<path id="_760DFB4D-05EA-47DD-A24E-2C62F6D50D9Fframe4" oryx:anchors="top left" style="opacity:1;fill:none;stroke-width:1.5" d="M 14 14.5 L 25 14.5" stroke="#000000"/>
		<path id="_760DFB4D-05EA-47DD-A24E-2C62F6D50D9Fframe5" oryx:anchors="top left" style="opacity:1;fill:none;stroke-width:1.5" d="M 8.2 3.1 L 15 3.1" stroke="#000000"/>
	</g>
	
	<g id="_760DFB4D-05EA-47DD-A24E-2C62F6D50D9FbusinessRuleTask" transform="scale(0.7,0.7) translate(8,8)" display="none">
		<rect id="_760DFB4D-05EA-47DD-A24E-2C62F6D50D9Fframe6" oryx:anchors="top left" x="0" y="0" width="22" height="4" style="opacity:1;fill:#B3B1B3;fill-opacity:1;" stroke="#000000"/>
		<rect id="_760DFB4D-05EA-47DD-A24E-2C62F6D50D9Fframe7" oryx:anchors="top left" x="0" y="4" style="opacity:1;fill:none;" width="22" height="12" stroke="#000000"/>
		<path id="_760DFB4D-05EA-47DD-A24E-2C62F6D50D9Fframe8" oryx:anchors="top left" style="opacity:1;fill:none;" d="M 0 10 L 22 10" stroke="#000000"/>
		<path id="_760DFB4D-05EA-47DD-A24E-2C62F6D50D9Fframe9" oryx:anchors="top left" style="opacity:1; fill:none;" d="M 7 4 L 7 16" stroke="#000000"/>
	</g>
	
	<g id="_760DFB4D-05EA-47DD-A24E-2C62F6D50D9FscriptTask" transform="scale(0.7,0.7) translate(8,8)" display="none">
		<path oryx:anchors="top left" id="_760DFB4D-05EA-47DD-A24E-2C62F6D50D9Fframe10" style="opacity:1;fill:none;" stroke="#000000" d="M6.402,0.5h14.5c0,0-5.833,2.833-5.833,5.583s4.417,6,4.417,9.167    s-4.167,5.083-4.167,5.083H0.235c0,0,5-2.667,5-5s-4.583-6.75-4.583-9.25S6.402,0.5,6.402,0.5z"/>
		<path oryx:anchors="top left" id="_760DFB4D-05EA-47DD-A24E-2C62F6D50D9Fframe11" style="opacity:1;fill:none;stroke-width:1.5" d="M 3.5 4.5 L 13.5 4.5" stroke="#000000"/>
		<path oryx:anchors="top left" id="_760DFB4D-05EA-47DD-A24E-2C62F6D50D9Fframe12" style="opacity:1;fill:none;stroke-width:1.5" d="M 3.8 8.5 L 13.8 8.5" stroke="#000000"/>
		<path oryx:anchors="top left" id="_760DFB4D-05EA-47DD-A24E-2C62F6D50D9Fframe13" style="opacity:1;fill:none;stroke-width:1.5" d="M 6.3 12.5 L 16.3 12.5" stroke="#000000"/>
		<path oryx:anchors="top left" id="_760DFB4D-05EA-47DD-A24E-2C62F6D50D9Fframe14" style="opacity:1;fill:none;stroke-width:1.5" d="M 6.5 16.5 L 16.5 16.5" stroke="#000000"/>
	</g>
	
	<g id="_760DFB4D-05EA-47DD-A24E-2C62F6D50D9FuserTask" transform="scale(0.7,0.7) translate(8,8)" display="none">
		<path id="_760DFB4D-05EA-47DD-A24E-2C62F6D50D9Fframe15" oryx:anchors="top left" style="opacity:1;fill:#F4F6F7" stroke="#000000" d="M0.585,24.167h24.083v-7.833c0,0-2.333-3.917-7.083-5.167h-9.25    c-4.417,1.333-7.833,5.75-7.833,5.75L0.585,24.167z"/>
		<path id="_760DFB4D-05EA-47DD-A24E-2C62F6D50D9Fframe16" oryx:anchors="top left" style="opacity:1;fill:none" d="M 6 20 L 6 24" stroke="#000000"/>
		<path id="_760DFB4D-05EA-47DD-A24E-2C62F6D50D9Fframe17" oryx:anchors="top left" style="opacity:1;fill:none" d="M 20 20 L 20 24" stroke="#000000"/>
		<circle id="_760DFB4D-05EA-47DD-A24E-2C62F6D50D9Fframe18" oryx:anchors="top left" fill="black" cx="13.002" cy="5.916" r="5.417" stroke="#000000"/>
		<path id="_760DFB4D-05EA-47DD-A24E-2C62F6D50D9Fframe19" oryx:anchors="top left" style="opacity:1;fill:#F0EFF0;" stroke="#000000" d="M8.043,7.083c0,0,2.814-2.426,5.376-1.807s4.624-0.693,4.624-0.693    c0.25,1.688,0.042,3.75-1.458,5.584c0,0,1.083,0.75,1.083,1.5s0.125,1.875-1,3s-5.5,1.25-6.75,0S8.668,12.834,8.668,12    s0.583-1.25,1.25-1.917C8.835,9.5,7.419,7.708,8.043,7.083z"/>
	</g>
	
	<g id="_760DFB4D-05EA-47DD-A24E-2C62F6D50D9FserviceTask" transform="scale(0.7,0.7) translate(8,8)" display="none">
		<polygon oryx:anchors="top left" id="_760DFB4D-05EA-47DD-A24E-2C62F6D50D9Fframe20" style="opacity:1;fill:#ffffff" stroke="#000000" points="15.392,5.064 17.954,2.502 20.347,4.895 17.786,7.455     18.729,9.732 22.353,9.732 22.353,13.115 18.731,13.115 17.788,15.392 20.351,17.955 17.958,20.347 15.397,17.786 13.12,18.729     13.12,22.353 9.737,22.353 9.737,18.731 7.46,17.788 4.897,20.35 2.506,17.958 5.066,15.397 4.124,13.12 0.5,13.12 0.5,9.737     4.121,9.737 5.065,7.461 2.503,4.898 4.895,2.506 7.455,5.066 9.732,4.125 9.732,0.5 13.116,0.5 13.116,4.121 "/>
		<circle oryx:anchors="top left" id="_760DFB4D-05EA-47DD-A24E-2C62F6D50D9Fframe21" style="opacity:1;fill:none" stroke="#000000" cx="11.427" cy="11.426" r="3.714"/>
		<polygon oryx:anchors="top left" id="_760DFB4D-05EA-47DD-A24E-2C62F6D50D9Fframe22" style="opacity:1;fill:#ffffff" stroke="#000000" points="21.392,11.064 23.954,8.502 26.347,10.895 23.786,13.455     24.729,15.732 28.353,15.732 28.353,19.115 24.731,19.115 23.788,21.392 26.351,23.955 23.958,26.347 21.397,23.786 19.12,24.729     19.12,28.353 15.737,28.353 15.737,24.731 13.46,23.788 10.897,26.35 8.506,23.958 11.066,21.397 10.124,19.12 6.5,19.12     6.5,15.737 10.121,15.737 11.065,13.461 8.503,10.898 10.895,8.506 13.455,11.066 15.732,10.125 15.732,6.5 19.116,6.5     19.116,10.121 "/>
		<circle oryx:anchors="top left" id="_760DFB4D-05EA-47DD-A24E-2C62F6D50D9Fframe23" style="opacity:1;fill:none;" stroke="#000000" cx="17.427" cy="17.426" r="3.714"/>
	</g>
	
	<g id="_760DFB4D-05EA-47DD-A24E-2C62F6D50D9FsendTask" display="none">
		<path id="_760DFB4D-05EA-47DD-A24E-2C62F6D50D9Fframe24" oryx:anchors="left top" stroke="#000000" fill="black" stroke-width="1" d="M8,11 L8,21 L24,21 L24,11 L16,17z"/>
		<path id="_760DFB4D-05EA-47DD-A24E-2C62F6D50D9Fframe25" oryx:anchors="left top" stroke="#000000" fill="black" stroke-width="1" d="M7,10 L16,17 L25 10z"/>
	</g>
	
	<g id="_760DFB4D-05EA-47DD-A24E-2C62F6D50D9FreceiveTask" display="none">
		<path id="_760DFB4D-05EA-47DD-A24E-2C62F6D50D9Fframe26" oryx:anchors="left top" stroke="#000000" fill="none" stroke-width="1" d="M8,11 L8,21 L24,21 L24,11z M8,11 L16,17 L24,11"/>
	</g>
	
	<g id="_760DFB4D-05EA-47DD-A24E-2C62F6D50D9Fnone" display="inherit"/>
  </g></g><g class="children" style="overflow:hidden"/><g class="edge"/></g><g class="controls"><g class="dockers"/><g class="magnets" transform="translate(470, 176)"><g pointer-events="all" display="none" transform="translate(-7, 12)"><circle cx="8" cy="8" r="4" stroke="none" fill="red" fill-opacity="0.3"/></g><g pointer-events="all" display="none" transform="translate(-7, 32)"><circle cx="8" cy="8" r="4" stroke="none" fill="red" fill-opacity="0.3"/></g><g pointer-events="all" display="none" transform="translate(-7, 52)"><circle cx="8" cy="8" r="4" stroke="none" fill="red" fill-opacity="0.3"/></g><g pointer-events="all" display="none" transform="translate(17, 71)"><circle cx="8" cy="8" r="4" stroke="none" fill="red" fill-opacity="0.3"/></g><g pointer-events="all" display="none" transform="translate(42, 71)"><circle cx="8" cy="8" r="4" stroke="none" fill="red" fill-opacity="0.3"/></g><g pointer-events="all" display="none" transform="translate(67, 71)"><circle cx="8" cy="8" r="4" stroke="none" fill="red" fill-opacity="0.3"/></g><g pointer-events="all" display="none" transform="translate(91, 12)"><circle cx="8" cy="8" r="4" stroke="none" fill="red" fill-opacity="0.3"/></g><g pointer-events="all" display="none" transform="translate(91, 32)"><circle cx="8" cy="8" r="4" stroke="none" fill="red" fill-opacity="0.3"/></g><g pointer-events="all" display="none" transform="translate(91, 52)"><circle cx="8" cy="8" r="4" stroke="none" fill="red" fill-opacity="0.3"/></g><g pointer-events="all" display="none" transform="translate(17, -7)"><circle cx="8" cy="8" r="4" stroke="none" fill="red" fill-opacity="0.3"/></g><g pointer-events="all" display="none" transform="translate(42, -7)"><circle cx="8" cy="8" r="4" stroke="none" fill="red" fill-opacity="0.3"/></g><g pointer-events="all" display="none" transform="translate(67, -7)"><circle cx="8" cy="8" r="4" stroke="none" fill="red" fill-opacity="0.3"/></g><g pointer-events="all" display="none" transform="translate(42, 32)"><circle cx="8" cy="8" r="4" stroke="none" fill="red" fill-opacity="0.3"/></g></g></g></g><g id="_C654FBC5-AB3E-4D22-BC8A-57C7F548BF06"><g class="stencils" transform="translate(615, 202)"><g class="me"><g pointer-events="fill" id="_C654FBC5-AB3E-4D22-BC8A-57C7F548BF06" title="End Event">

    <defs id="_C654FBC5-AB3E-4D22-BC8A-57C7F548BF06__C654FBC5-AB3E-4D22-BC8A-57C7F548BF06_5">
		<radialGradient id="_C654FBC5-AB3E-4D22-BC8A-57C7F548BF06background" cx="10%" cy="10%" r="100%" fx="10%" fy="10%">
			<stop offset="0%" stop-color="#ffffff" stop-opacity="1" id="_C654FBC5-AB3E-4D22-BC8A-57C7F548BF06__C654FBC5-AB3E-4D22-BC8A-57C7F548BF06_6"/>
			<stop id="_C654FBC5-AB3E-4D22-BC8A-57C7F548BF06fill_el" offset="100%" stop-color="#ff6347" stop-opacity="1"/>
		</radialGradient>
	</defs>
	
    <circle id="_C654FBC5-AB3E-4D22-BC8A-57C7F548BF06bg_frame" cx="14" cy="14" r="14" stroke="#000000" fill="url(#_C654FBC5-AB3E-4D22-BC8A-57C7F548BF06background) white" stroke-width="3"/>
	<text font-size="11" id="_C654FBC5-AB3E-4D22-BC8A-57C7F548BF06text_name" x="14" y="30" oryx:align="top center" stroke="black" stroke-width="0pt" letter-spacing="-0.01px" fill="#000000" text-anchor="middle" transform="rotate(0 14 30)" visibility="inherit" oryx:fontSize="11"/>
  </g></g><g class="children" style="overflow:hidden"/><g class="edge"/></g><g class="controls"><g class="dockers"/><g class="magnets" transform="translate(615, 202)"><g pointer-events="all" display="none" transform="translate(6, 6)"><circle cx="8" cy="8" r="4" stroke="none" fill="red" fill-opacity="0.3"/></g></g></g></g></g><g class="edge"><g id="_1387F673-2E34-4247-A5A5-02EEA69C527B"><g class="stencils"><g class="me" title="Sequence Flow"><g pointer-events="painted"><path id="_1387F673-2E34-4247-A5A5-02EEA69C527B_1" d="M205.609375 216L249.15625 216 " stroke="#000000" fill="none" stroke-width="2" stroke-linecap="round" stroke-linejoin="round" marker-start="url(#_1387F673-2E34-4247-A5A5-02EEA69C527Bstart)" marker-end="url(#_1387F673-2E34-4247-A5A5-02EEA69C527Bend)"/><path id="undefined" d="M205.609375 216L249.15625 216 " stroke="black" fill="none" stroke-width="10" stroke-linecap="round" stroke-linejoin="round" marker-start="url(#_1387F673-2E34-4247-A5A5-02EEA69C527Bstart)" marker-end="url(#_1387F673-2E34-4247-A5A5-02EEA69C527Bend)" visibility="hidden" stroke-dasharray="none"/></g><text id="_1387F673-2E34-4247-A5A5-02EEA69C527Btext_name" font-size="12" x="219.609375" y="202" oryx:edgePosition="startTop" stroke-width="0pt" letter-spacing="-0.01px" fill="#000000" text-anchor="start" transform="rotate(360 205.609375 216)" visibility="inherit" oryx:fontSize="12"/></g><g class="children" style="overflow:hidden"/><g class="edge"/></g><g class="controls"><g class="dockers"><g visibility="hidden"><g pointer-events="all" transform="translate(197.609375, 208)"><circle cx="8" cy="8" r="8" stroke="none" fill="none"/><circle cx="8" cy="8" r="3" stroke="black" fill="#00FF00" stroke-width="1"/></g><g pointer-events="none" transform="translate(190, 216)"><circle cx="0" cy="0" r="3" fill="red" fill-opacity="0.4"/></g></g><g visibility="hidden"><g pointer-events="all" transform="translate(241.15625, 208)"><circle cx="8" cy="8" r="8" stroke="none" fill="none" id="ext-gen706"/><circle cx="8" cy="8" r="3" stroke="black" fill="#00FF00" stroke-width="1"/></g><g pointer-events="none" transform="translate(300, 216)"><circle cx="0" cy="0" r="3" fill="red" fill-opacity="0.4"/></g></g></g><g class="magnets"/></g></g><g id="_DBCB1427-1DD9-446D-8FA5-E5C6614841DF"><g class="stencils"><g class="me" title="Sequence Flow"><g pointer-events="painted"><path id="_DBCB1427-1DD9-446D-8FA5-E5C6614841DF_1" d="M350.84375 216L394.390625 216 " stroke="#000000" fill="none" stroke-width="2" stroke-linecap="round" stroke-linejoin="round" marker-start="url(#_DBCB1427-1DD9-446D-8FA5-E5C6614841DFstart)" marker-end="url(#_DBCB1427-1DD9-446D-8FA5-E5C6614841DFend)"/><path id="undefined" d="M350.84375 216L394.390625 216 " stroke="black" fill="none" stroke-width="10" stroke-linecap="round" stroke-linejoin="round" marker-start="url(#_DBCB1427-1DD9-446D-8FA5-E5C6614841DFstart)" marker-end="url(#_DBCB1427-1DD9-446D-8FA5-E5C6614841DFend)" visibility="hidden" stroke-dasharray="none"/></g><text id="_DBCB1427-1DD9-446D-8FA5-E5C6614841DFtext_name" font-size="12" x="364.84375" y="202" oryx:edgePosition="startTop" stroke-width="0pt" letter-spacing="-0.01px" fill="#000000" text-anchor="start" transform="rotate(360 350.84375 216)" visibility="inherit" oryx:fontSize="12"/></g><g class="children" style="overflow:hidden"/><g class="edge"/></g><g class="controls"><g class="dockers"><g visibility="hidden"><g pointer-events="all" transform="translate(342.84375, 208)"><circle cx="8" cy="8" r="8" stroke="none" fill="none"/><circle cx="8" cy="8" r="3" stroke="black" fill="#00FF00" stroke-width="1"/></g><g pointer-events="none" transform="translate(300, 216)"><circle cx="0" cy="0" r="3" fill="red" fill-opacity="0.4"/></g></g><g visibility="hidden"><g pointer-events="all" transform="translate(386.390625, 208)"><circle cx="8" cy="8" r="8" stroke="none" fill="none"/><circle cx="8" cy="8" r="3" stroke="black" fill="#00FF00" stroke-width="1"/></g><g pointer-events="none" transform="translate(410, 216)"><circle cx="0" cy="0" r="3" fill="red" fill-opacity="0.4"/></g></g></g><g class="magnets"/></g></g><g id="_B50BED1C-AF6A-43A4-A18C-1C086A8F4A9B"><g class="stencils"><g class="me" title="Sequence Flow"><g pointer-events="painted"><path id="_B50BED1C-AF6A-43A4-A18C-1C086A8F4A9B_1" d="M425.609375 216L469.15625 216 " stroke="#000000" fill="none" stroke-width="2" stroke-linecap="round" stroke-linejoin="round" marker-start="url(#_B50BED1C-AF6A-43A4-A18C-1C086A8F4A9Bstart)" marker-end="url(#_B50BED1C-AF6A-43A4-A18C-1C086A8F4A9Bend)"/><path id="undefined" d="M425.609375 216L469.15625 216 " stroke="black" fill="none" stroke-width="10" stroke-linecap="round" stroke-linejoin="round" marker-start="url(#_B50BED1C-AF6A-43A4-A18C-1C086A8F4A9Bstart)" marker-end="url(#_B50BED1C-AF6A-43A4-A18C-1C086A8F4A9Bend)" visibility="hidden" stroke-dasharray="none"/></g><text id="_B50BED1C-AF6A-43A4-A18C-1C086A8F4A9Btext_name" font-size="12" x="439.609375" y="202" oryx:edgePosition="startTop" stroke-width="0pt" letter-spacing="-0.01px" fill="#000000" text-anchor="start" transform="rotate(360 425.609375 216)" visibility="inherit" oryx:fontSize="12"/></g><g class="children" style="overflow:hidden"/><g class="edge"/></g><g class="controls"><g class="dockers"><g visibility="hidden"><g pointer-events="all" transform="translate(417.609375, 208)"><circle cx="8" cy="8" r="8" stroke="none" fill="none"/><circle cx="8" cy="8" r="3" stroke="black" fill="#00FF00" stroke-width="1"/></g><g pointer-events="none" transform="translate(410, 216)"><circle cx="0" cy="0" r="3" fill="red" fill-opacity="0.4"/></g></g><g visibility="hidden"><g pointer-events="all" transform="translate(461.15625, 208)"><circle cx="8" cy="8" r="8" stroke="none" fill="none" id="ext-gen737"/><circle cx="8" cy="8" r="3" stroke="black" fill="#00FF00" stroke-width="1"/></g><g pointer-events="none" transform="translate(520, 216)"><circle cx="0" cy="0" r="3" fill="red" fill-opacity="0.4"/></g></g></g><g class="magnets"/></g></g><g id="_C12029F9-66CB-40C7-B6EA-CD18FC463CF9"><g class="stencils"><g class="me" title="Sequence Flow"><g pointer-events="painted"><path id="_C12029F9-66CB-40C7-B6EA-CD18FC463CF9_1" d="M570.390625 216L614.375 216 " stroke="#000000" fill="none" stroke-width="2" stroke-linecap="round" stroke-linejoin="round" marker-start="url(#_C12029F9-66CB-40C7-B6EA-CD18FC463CF9start)" marker-end="url(#_C12029F9-66CB-40C7-B6EA-CD18FC463CF9end)"/><path id="undefined" d="M570.390625 216L614.375 216 " stroke="black" fill="none" stroke-width="10" stroke-linecap="round" stroke-linejoin="round" marker-start="url(#_C12029F9-66CB-40C7-B6EA-CD18FC463CF9start)" marker-end="url(#_C12029F9-66CB-40C7-B6EA-CD18FC463CF9end)" visibility="hidden" stroke-dasharray="none"/></g><text id="_C12029F9-66CB-40C7-B6EA-CD18FC463CF9text_name" font-size="12" x="584.390625" y="202" oryx:edgePosition="startTop" stroke-width="0pt" letter-spacing="-0.01px" fill="#000000" text-anchor="start" transform="rotate(360 570.390625 216)" visibility="inherit" oryx:fontSize="12"/></g><g class="children" style="overflow:hidden"/><g class="edge"/></g><g class="controls"><g class="dockers"><g visibility="hidden"><g pointer-events="all" transform="translate(562.390625, 208)"><circle cx="8" cy="8" r="8" stroke="none" fill="none"/><circle cx="8" cy="8" r="3" stroke="black" fill="#00FF00" stroke-width="1"/></g><g pointer-events="none" transform="translate(520, 216)"><circle cx="0" cy="0" r="3" fill="red" fill-opacity="0.4"/></g></g><g visibility="hidden"><g pointer-events="all" transform="translate(606.375, 208)"><circle cx="8" cy="8" r="8" stroke="none" fill="none"/><circle cx="8" cy="8" r="3" stroke="black" fill="#00FF00" stroke-width="1"/></g><g pointer-events="none" transform="translate(629, 216)"><circle cx="0" cy="0" r="3" fill="red" fill-opacity="0.4"/></g></g></g><g class="magnets"/></g></g></g><path id="processFormP1" title="Edit Process Form" style="opacity:1;fill:#339966;stroke:#000000" d="M0.585,24.167h24.083v-7.833c0,0-2.333-3.917-7.083-5.167h-9.25 c-4.417,1.333-7.833,5.75-7.833,5.75L0.585,24.167z" onclick="ORYX.Plugins.CanvasTitle.editProcessForm()" transform="translate(10, 20)"/><path id="processFormP2" title="Edit Process Form" style="opacity:1;fill:none;stroke:#000000" d="M 6 20 L 6 24" onclick="ORYX.Plugins.CanvasTitle.editProcessForm()" transform="translate(10, 20)"/><path id="processFormP3" title="Edit Process Form" style="opacity:1;fill:none;stroke:#000000" d="M 20 20 L 20 24" onclick="ORYX.Plugins.CanvasTitle.editProcessForm()" transform="translate(10, 20)"/><circle id="processFormP4" title="Edit Process Form" fill="#000000" stroke="#000000" cx="13.002" cy="5.916" r="5.417" onclick="ORYX.Plugins.CanvasTitle.editProcessForm()" transform="translate(10, 20)"/><path id="processFormP5" title="Edit Process Form" style="opacity:1;fill:#FFCC99;stroke:#000000" d="M8.043,7.083c0,0,2.814-2.426,5.376-1.807s4.624-0.693,4.624-0.693 c0.25,1.688,0.042,3.75-1.458,5.584c0,0,1.083,0.75,1.083,1.5s0.125,1.875-1,3s-5.5,1.25-6.75,0S8.668,12.834,8.668,12 s0.583-1.25,1.25-1.917C8.835,9.5,7.419,7.708,8.043,7.083z" onclick="ORYX.Plugins.CanvasTitle.editProcessForm()" transform="translate(10, 20)"/><text id="_CF31C61D-C9B7-4E3F-8D8C-DA97842222E1" style="stroke-width:1;fill:rgb(177,194,214);font-family:arial;font-weight:bold" font-size="12" onclick="ORYX.Plugins.CanvasTitle.openTextualAnalysis()" onmouseover="ORYX.Plugins.CanvasTitle.addToolTip('_CF31C61D-C9B7-4E3F-8D8C-DA97842222E1')" transform="translate(40, 43)">newprocess-1.0 (processes.newprocess-1.0)</text></g><g class="svgcontainer"><g display="inherit" transform="translate(611, 198)"><rect x="0" y="0" stroke-width="1" stroke="#777777" fill="none" stroke-dasharray="2,2" pointer-events="none" width="36" height="36"/></g><g display="none"><path stroke-width="1" stroke="silver" fill="none" stroke-dasharray="5,5" pointer-events="none"/></g><g display="none"><path stroke-width="1" stroke="silver" fill="none" stroke-dasharray="5,5" pointer-events="none"/></g><g><path stroke-width="2" fill="none" d="M-4 1 l0 -5 l5 0 M-4 1999 l0 5 l5 0 M3004 1999 l0 5 l-5 0 M3004 1 l0 -5 l-5 0 " stroke="#00FF00" stroke-opacity="1" display="none"/></g></g></g></svg>