<svg xmlns="http://www.w3.org/2000/svg" xmlns:oryx="http://oryx-editor.org" id="_EDDB6AF9-8F78-4FAB-A1AA-165B0CEFABB6" width="3000" height="2000" xmlns:xlink="http://www.w3.org/1999/xlink" xmlns:svg="http://www.w3.org/2000/svg"><defs><marker id="_26F20236-C097-4F61-A5B5-1BC4878E8EC4start" refX="1" refY="5" markerUnits="userSpaceOnUse" markerWidth="17" markerHeight="11" orient="auto" fill="#000000" stroke="#000000">
	  		<path id="_26F20236-C097-4F61-A5B5-1BC4878E8EC4conditional" d="M 0 5 L 8 0 L 16 5 L 8 10 L 0 5" fill="white" stroke="#000000" stroke-width="1" display="none"/>
			<path id="_26F20236-C097-4F61-A5B5-1BC4878E8EC4default" d="M 5 0 L 11 10" fill="white" stroke="#000000" stroke-width="1" display="none"/>
	  	</marker><marker id="_26F20236-C097-4F61-A5B5-1BC4878E8EC4end" refX="15" refY="6" markerUnits="userSpaceOnUse" markerWidth="15" markerHeight="12" orient="auto" fill="#000000" stroke="#000000">
	  		<path id="_26F20236-C097-4F61-A5B5-1BC4878E8EC4frame2" d="M 0 1 L 15 6 L 0 11z" fill="#000000" stroke="#000000" stroke-linejoin="round" stroke-width="2"/>
	  	</marker><marker id="_3196F911-D4E2-45A5-8A85-CA05A2100015start" refX="1" refY="5" markerUnits="userSpaceOnUse" markerWidth="17" markerHeight="11" orient="auto" fill="#000000" stroke="#000000">
	  		<path id="_3196F911-D4E2-45A5-8A85-CA05A2100015conditional" d="M 0 5 L 8 0 L 16 5 L 8 10 L 0 5" fill="white" stroke="#000000" stroke-width="1" display="none"/>
			<path id="_3196F911-D4E2-45A5-8A85-CA05A2100015default" d="M 5 0 L 11 10" fill="white" stroke="#000000" stroke-width="1" display="none"/>
	  	</marker><marker id="_3196F911-D4E2-45A5-8A85-CA05A2100015end" refX="15" refY="6" markerUnits="userSpaceOnUse" markerWidth="15" markerHeight="12" orient="auto" fill="#000000" stroke="#000000">
	  		<path id="_3196F911-D4E2-45A5-8A85-CA05A2100015frame2" d="M 0 1 L 15 6 L 0 11z" fill="#000000" stroke="#000000" stroke-linejoin="round" stroke-width="2"/>
	  	</marker><marker id="_30E1BE02-2E74-4CBB-8C21-664524465E01start" refX="1" refY="5" markerUnits="userSpaceOnUse" markerWidth="17" markerHeight="11" orient="auto" fill="#000000" stroke="#000000">
	  		<path id="_30E1BE02-2E74-4CBB-8C21-664524465E01conditional" d="M 0 5 L 8 0 L 16 5 L 8 10 L 0 5" fill="white" stroke="#000000" stroke-width="1" display="none"/>
			<path id="_30E1BE02-2E74-4CBB-8C21-664524465E01default" d="M 5 0 L 11 10" fill="white" stroke="#000000" stroke-width="1" display="none"/>
	  	</marker><marker id="_30E1BE02-2E74-4CBB-8C21-664524465E01end" refX="15" refY="6" markerUnits="userSpaceOnUse" markerWidth="15" markerHeight="12" orient="auto" fill="#000000" stroke="#000000">
	  		<path id="_30E1BE02-2E74-4CBB-8C21-664524465E01frame2" d="M 0 1 L 15 6 L 0 11z" fill="#000000" stroke="#000000" stroke-linejoin="round" stroke-width="2"/>
	  	</marker><marker id="_D8CA01C6-9544-4C09-A24D-E46C57923DEDstart" refX="1" refY="5" markerUnits="userSpaceOnUse" markerWidth="17" markerHeight="11" orient="auto" fill="#000000" stroke="#000000">
	  		<path id="_D8CA01C6-9544-4C09-A24D-E46C57923DEDconditional" d="M 0 5 L 8 0 L 16 5 L 8 10 L 0 5" fill="white" stroke="#000000" stroke-width="1" display="none"/>
			<path id="_D8CA01C6-9544-4C09-A24D-E46C57923DEDdefault" d="M 5 0 L 11 10" fill="white" stroke="#000000" stroke-width="1" display="none"/>
	  	</marker><marker id="_D8CA01C6-9544-4C09-A24D-E46C57923DEDend" refX="15" refY="6" markerUnits="userSpaceOnUse" markerWidth="15" markerHeight="12" orient="auto" fill="#000000" stroke="#000000">
	  		<path id="_D8CA01C6-9544-4C09-A24D-E46C57923DEDframe2" d="M 0 1 L 15 6 L 0 11z" fill="#000000" stroke="#000000" stroke-linejoin="round" stroke-width="2"/>
	  	</marker></defs><g stroke="none" font-family="Verdana, sans-serif" font-size-adjust="none" font-style="normal" font-variant="normal" font-weight="normal" line-heigth="normal" font-size="12"><g class="stencils"><g class="me"/><g class="children"><g id="_989C0FFA-31FE-4FC8-B764-47923B8AE5CF"><g class="stencils" transform="translate(175, 201)"><g class="me"><g pointer-events="fill" id="_989C0FFA-31FE-4FC8-B764-47923B8AE5CF" title="Start Event">
  
    <defs id="_989C0FFA-31FE-4FC8-B764-47923B8AE5CF__989C0FFA-31FE-4FC8-B764-47923B8AE5CF_5">
		<radialGradient id="_989C0FFA-31FE-4FC8-B764-47923B8AE5CFbackground" cx="10%" cy="10%" r="100%" fx="10%" fy="10%">
			<stop offset="0%" stop-color="#ffffff" stop-opacity="1" id="_989C0FFA-31FE-4FC8-B764-47923B8AE5CF__989C0FFA-31FE-4FC8-B764-47923B8AE5CF_6"/>
			<stop id="_989C0FFA-31FE-4FC8-B764-47923B8AE5CFfill_el" offset="100%" stop-color="#9acd32" stop-opacity="1"/>
		</radialGradient>
	</defs>
	
    <circle id="_989C0FFA-31FE-4FC8-B764-47923B8AE5CFbg_frame" cx="15" cy="15" r="15" stroke="#000000" fill="url(#_989C0FFA-31FE-4FC8-B764-47923B8AE5CFbackground) white" stroke-width="1"/>
	<text font-size="11" id="_989C0FFA-31FE-4FC8-B764-47923B8AE5CFtext_name" x="15" y="32" oryx:align="top center" stroke="black" stroke-width="0pt" letter-spacing="-0.01px" fill="#000000" text-anchor="middle" transform="rotate(0 15 32)" visibility="inherit" oryx:fontSize="11"/>
  </g></g><g class="children" style="overflow:hidden"/><g class="edge"/></g><g class="controls"><g class="dockers"/><g class="magnets" transform="translate(175, 201)"><g pointer-events="all" display="none" transform="translate(7, 7)"><circle cx="8" cy="8" r="4" stroke="none" fill="red" fill-opacity="0.3"/></g></g></g></g><g id="_F5CC0969-282D-438A-8E6B-F1AA40811166"><g class="stencils" transform="translate(250, 176)"><g class="me"><g pointer-events="fill" oryx:minimumSize="50 40" id="_F5CC0969-282D-438A-8E6B-F1AA40811166" title="Task">
  	<defs id="_F5CC0969-282D-438A-8E6B-F1AA40811166__F5CC0969-282D-438A-8E6B-F1AA40811166_17">
		<radialGradient id="_F5CC0969-282D-438A-8E6B-F1AA40811166background" cx="10%" cy="10%" r="100%" fx="10%" fy="10%">
			<stop offset="0%" stop-color="#ffffff" stop-opacity="1" id="_F5CC0969-282D-438A-8E6B-F1AA40811166__F5CC0969-282D-438A-8E6B-F1AA40811166_18"/>
			<stop id="_F5CC0969-282D-438A-8E6B-F1AA40811166fill_el" offset="100%" stop-color="#fafad2" stop-opacity="1"/>
		</radialGradient>
		<radialGradient id="_F5CC0969-282D-438A-8E6B-F1AA40811166borderbackground" cx="10%" cy="10%" r="100%" fx="10%" fy="10%">
			<stop offset="0%" stop-color="#ffffff" stop-opacity="1" id="_F5CC0969-282D-438A-8E6B-F1AA40811166__F5CC0969-282D-438A-8E6B-F1AA40811166_19"/>
			<stop id="_F5CC0969-282D-438A-8E6B-F1AA40811166fill_border" offset="100%" stop-color="#000000" stop-opacity="1" stroke="#000000"/>
		</radialGradient>
	</defs>
	
	<rect id="_F5CC0969-282D-438A-8E6B-F1AA40811166text_frame" oryx:anchors="bottom top right left" x="1" y="1" width="94" height="79" rx="10" ry="10" stroke="none" stroke-width="0" fill="none"/>
	<rect id="_F5CC0969-282D-438A-8E6B-F1AA40811166bg_frame" oryx:resize="vertical horizontal" x="0" y="0" width="100" height="80" rx="10" ry="10" stroke="#000000" stroke-width="1" fill="url(#_F5CC0969-282D-438A-8E6B-F1AA40811166background) #ffffcc"/>
		<text font-size="12" id="_F5CC0969-282D-438A-8E6B-F1AA40811166text_name" x="50" y="40" oryx:align="middle center" oryx:fittoelem="text_frame" stroke="black" stroke-width="0pt" letter-spacing="-0.01px" fill="#000000" text-anchor="middle" transform="rotate(0 50 40)" visibility="inherit" oryx:fontSize="12"><tspan x="50" y="40" dy="5">first</tspan></text>
    <g id="_F5CC0969-282D-438A-8E6B-F1AA40811166manualTask" transform="scale(0.7,0.7) translate(8,8)" display="none">
    	<path oryx:anchors="top left" id="_F5CC0969-282D-438A-8E6B-F1AA40811166frame" style="opacity:1;fill:none;fill-opacity:1;stroke-width:1" d="M0.5,3.751l4.083-3.25c0,0,11.166,0.083,12.083,0.083s-2.417,2.917-1.5,2.917     s11.667,0,12.584,0c1.166,1.708-0.168,3.167-0.834,3.667s0.875,1.917-1,4.417c-0.75,0.25,0.75,1.875-1.333,3.333     c-1.167,0.583,0.583,1.542-1.25,2.833c-1.167,0-20.833,0.083-20.833,0.083l-2-1.333V3.751z" stroke="#000000"/>
		<path id="_F5CC0969-282D-438A-8E6B-F1AA40811166frame2" oryx:anchors="top left" style="opacity:1;fill:none;stroke-width:2" d="M 13.5 7 L 27 7" stroke="#000000"/>
		<path id="_F5CC0969-282D-438A-8E6B-F1AA40811166frame3" oryx:anchors="top left" style="opacity:1;fill:none;stroke-width:2" d="M 13.5 11 L 26 11" stroke="#000000"/>
		<path id="_F5CC0969-282D-438A-8E6B-F1AA40811166frame4" oryx:anchors="top left" style="opacity:1;fill:none;stroke-width:1.5" d="M 14 14.5 L 25 14.5" stroke="#000000"/>
		<path id="_F5CC0969-282D-438A-8E6B-F1AA40811166frame5" oryx:anchors="top left" style="opacity:1;fill:none;stroke-width:1.5" d="M 8.2 3.1 L 15 3.1" stroke="#000000"/>
	</g>
	
	<g id="_F5CC0969-282D-438A-8E6B-F1AA40811166businessRuleTask" transform="scale(0.7,0.7) translate(8,8)" display="none">
		<rect id="_F5CC0969-282D-438A-8E6B-F1AA40811166frame6" oryx:anchors="top left" x="0" y="0" width="22" height="4" style="opacity:1;fill:#B3B1B3;fill-opacity:1;" stroke="#000000"/>
		<rect id="_F5CC0969-282D-438A-8E6B-F1AA40811166frame7" oryx:anchors="top left" x="0" y="4" style="opacity:1;fill:none;" width="22" height="12" stroke="#000000"/>
		<path id="_F5CC0969-282D-438A-8E6B-F1AA40811166frame8" oryx:anchors="top left" style="opacity:1;fill:none;" d="M 0 10 L 22 10" stroke="#000000"/>
		<path id="_F5CC0969-282D-438A-8E6B-F1AA40811166frame9" oryx:anchors="top left" style="opacity:1; fill:none;" d="M 7 4 L 7 16" stroke="#000000"/>
	</g>
	
	<g id="_F5CC0969-282D-438A-8E6B-F1AA40811166scriptTask" transform="scale(0.7,0.7) translate(8,8)" display="none">
		<path oryx:anchors="top left" id="_F5CC0969-282D-438A-8E6B-F1AA40811166frame10" style="opacity:1;fill:none;" stroke="#000000" d="M6.402,0.5h14.5c0,0-5.833,2.833-5.833,5.583s4.417,6,4.417,9.167    s-4.167,5.083-4.167,5.083H0.235c0,0,5-2.667,5-5s-4.583-6.75-4.583-9.25S6.402,0.5,6.402,0.5z"/>
		<path oryx:anchors="top left" id="_F5CC0969-282D-438A-8E6B-F1AA40811166frame11" style="opacity:1;fill:none;stroke-width:1.5" d="M 3.5 4.5 L 13.5 4.5" stroke="#000000"/>
		<path oryx:anchors="top left" id="_F5CC0969-282D-438A-8E6B-F1AA40811166frame12" style="opacity:1;fill:none;stroke-width:1.5" d="M 3.8 8.5 L 13.8 8.5" stroke="#000000"/>
		<path oryx:anchors="top left" id="_F5CC0969-282D-438A-8E6B-F1AA40811166frame13" style="opacity:1;fill:none;stroke-width:1.5" d="M 6.3 12.5 L 16.3 12.5" stroke="#000000"/>
		<path oryx:anchors="top left" id="_F5CC0969-282D-438A-8E6B-F1AA40811166frame14" style="opacity:1;fill:none;stroke-width:1.5" d="M 6.5 16.5 L 16.5 16.5" stroke="#000000"/>
	</g>
	
	<g id="_F5CC0969-282D-438A-8E6B-F1AA40811166userTask" transform="scale(0.7,0.7) translate(8,8)" display="none">
		<path id="_F5CC0969-282D-438A-8E6B-F1AA40811166frame15" oryx:anchors="top left" style="opacity:1;fill:#F4F6F7" stroke="#000000" d="M0.585,24.167h24.083v-7.833c0,0-2.333-3.917-7.083-5.167h-9.25    c-4.417,1.333-7.833,5.75-7.833,5.75L0.585,24.167z"/>
		<path id="_F5CC0969-282D-438A-8E6B-F1AA40811166frame16" oryx:anchors="top left" style="opacity:1;fill:none" d="M 6 20 L 6 24" stroke="#000000"/>
		<path id="_F5CC0969-282D-438A-8E6B-F1AA40811166frame17" oryx:anchors="top left" style="opacity:1;fill:none" d="M 20 20 L 20 24" stroke="#000000"/>
		<circle id="_F5CC0969-282D-438A-8E6B-F1AA40811166frame18" oryx:anchors="top left" fill="black" cx="13.002" cy="5.916" r="5.417" stroke="#000000"/>
		<path id="_F5CC0969-282D-438A-8E6B-F1AA40811166frame19" oryx:anchors="top left" style="opacity:1;fill:#F0EFF0;" stroke="#000000" d="M8.043,7.083c0,0,2.814-2.426,5.376-1.807s4.624-0.693,4.624-0.693    c0.25,1.688,0.042,3.75-1.458,5.584c0,0,1.083,0.75,1.083,1.5s0.125,1.875-1,3s-5.5,1.25-6.75,0S8.668,12.834,8.668,12    s0.583-1.25,1.25-1.917C8.835,9.5,7.419,7.708,8.043,7.083z"/>
	</g>
	
	<g id="_F5CC0969-282D-438A-8E6B-F1AA40811166serviceTask" transform="scale(0.7,0.7) translate(8,8)" display="none">
		<polygon oryx:anchors="top left" id="_F5CC0969-282D-438A-8E6B-F1AA40811166frame20" style="opacity:1;fill:#ffffff" stroke="#000000" points="15.392,5.064 17.954,2.502 20.347,4.895 17.786,7.455     18.729,9.732 22.353,9.732 22.353,13.115 18.731,13.115 17.788,15.392 20.351,17.955 17.958,20.347 15.397,17.786 13.12,18.729     13.12,22.353 9.737,22.353 9.737,18.731 7.46,17.788 4.897,20.35 2.506,17.958 5.066,15.397 4.124,13.12 0.5,13.12 0.5,9.737     4.121,9.737 5.065,7.461 2.503,4.898 4.895,2.506 7.455,5.066 9.732,4.125 9.732,0.5 13.116,0.5 13.116,4.121 "/>
		<circle oryx:anchors="top left" id="_F5CC0969-282D-438A-8E6B-F1AA40811166frame21" style="opacity:1;fill:none" stroke="#000000" cx="11.427" cy="11.426" r="3.714"/>
		<polygon oryx:anchors="top left" id="_F5CC0969-282D-438A-8E6B-F1AA40811166frame22" style="opacity:1;fill:#ffffff" stroke="#000000" points="21.392,11.064 23.954,8.502 26.347,10.895 23.786,13.455     24.729,15.732 28.353,15.732 28.353,19.115 24.731,19.115 23.788,21.392 26.351,23.955 23.958,26.347 21.397,23.786 19.12,24.729     19.12,28.353 15.737,28.353 15.737,24.731 13.46,23.788 10.897,26.35 8.506,23.958 11.066,21.397 10.124,19.12 6.5,19.12     6.5,15.737 10.121,15.737 11.065,13.461 8.503,10.898 10.895,8.506 13.455,11.066 15.732,10.125 15.732,6.5 19.116,6.5     19.116,10.121 "/>
		<circle oryx:anchors="top left" id="_F5CC0969-282D-438A-8E6B-F1AA40811166frame23" style="opacity:1;fill:none;" stroke="#000000" cx="17.427" cy="17.426" r="3.714"/>
	</g>
	
	<g id="_F5CC0969-282D-438A-8E6B-F1AA40811166sendTask" display="none">
		<path id="_F5CC0969-282D-438A-8E6B-F1AA40811166frame24" oryx:anchors="left top" stroke="#000000" fill="black" stroke-width="1" d="M8,11 L8,21 L24,21 L24,11 L16,17z"/>
		<path id="_F5CC0969-282D-438A-8E6B-F1AA40811166frame25" oryx:anchors="left top" stroke="#000000" fill="black" stroke-width="1" d="M7,10 L16,17 L25 10z"/>
	</g>
	
	<g id="_F5CC0969-282D-438A-8E6B-F1AA40811166receiveTask" display="none">
		<path id="_F5CC0969-282D-438A-8E6B-F1AA40811166frame26" oryx:anchors="left top" stroke="#000000" fill="none" stroke-width="1" d="M8,11 L8,21 L24,21 L24,11z M8,11 L16,17 L24,11"/>
	</g>
	
	<g id="_F5CC0969-282D-438A-8E6B-F1AA40811166none" display="inherit"/>
  </g></g><g class="children" style="overflow:hidden"/><g class="edge"/></g><g class="controls"><g class="dockers"/><g class="magnets" transform="translate(250, 176)"><g pointer-events="all" display="none" transform="translate(-7, 12)"><circle cx="8" cy="8" r="4" stroke="none" fill="red" fill-opacity="0.3"/></g><g pointer-events="all" display="none" transform="translate(-7, 32)"><circle cx="8" cy="8" r="4" stroke="none" fill="red" fill-opacity="0.3"/></g><g pointer-events="all" display="none" transform="translate(-7, 52)"><circle cx="8" cy="8" r="4" stroke="none" fill="red" fill-opacity="0.3"/></g><g pointer-events="all" display="none" transform="translate(17, 71)"><circle cx="8" cy="8" r="4" stroke="none" fill="red" fill-opacity="0.3"/></g><g pointer-events="all" display="none" transform="translate(42, 71)"><circle cx="8" cy="8" r="4" stroke="none" fill="red" fill-opacity="0.3"/></g><g pointer-events="all" display="none" transform="translate(67, 71)"><circle cx="8" cy="8" r="4" stroke="none" fill="red" fill-opacity="0.3"/></g><g pointer-events="all" display="none" transform="translate(91, 12)"><circle cx="8" cy="8" r="4" stroke="none" fill="red" fill-opacity="0.3"/></g><g pointer-events="all" display="none" transform="translate(91, 32)"><circle cx="8" cy="8" r="4" stroke="none" fill="red" fill-opacity="0.3"/></g><g pointer-events="all" display="none" transform="translate(91, 52)"><circle cx="8" cy="8" r="4" stroke="none" fill="red" fill-opacity="0.3"/></g><g pointer-events="all" display="none" transform="translate(17, -7)"><circle cx="8" cy="8" r="4" stroke="none" fill="red" fill-opacity="0.3"/></g><g pointer-events="all" display="none" transform="translate(42, -7)"><circle cx="8" cy="8" r="4" stroke="none" fill="red" fill-opacity="0.3"/></g><g pointer-events="all" display="none" transform="translate(67, -7)"><circle cx="8" cy="8" r="4" stroke="none" fill="red" fill-opacity="0.3"/></g><g pointer-events="all" display="none" transform="translate(42, 32)"><circle cx="8" cy="8" r="4" stroke="none" fill="red" fill-opacity="0.3"/></g></g></g></g><g id="_FAB1D30D-3431-4A77-977F-CC1E7ABC166E"><g class="stencils" transform="translate(395, 201)"><g class="me"><g pointer-events="fill" id="_FAB1D30D-3431-4A77-977F-CC1E7ABC166E" title="Timer Intermediate Event">
  
    <defs id="_FAB1D30D-3431-4A77-977F-CC1E7ABC166E__FAB1D30D-3431-4A77-977F-CC1E7ABC166E_6">
		<radialGradient id="_FAB1D30D-3431-4A77-977F-CC1E7ABC166Ebackground" cx="10%" cy="10%" r="100%" fx="10%" fy="10%">
			<stop offset="0%" stop-color="#ffffff" stop-opacity="1" id="_FAB1D30D-3431-4A77-977F-CC1E7ABC166E__FAB1D30D-3431-4A77-977F-CC1E7ABC166E_7"/>
			<stop id="_FAB1D30D-3431-4A77-977F-CC1E7ABC166Efill_el" offset="100%" stop-color="#f5deb3" stop-opacity="1"/>
		</radialGradient>
	</defs>
    
    <circle id="_FAB1D30D-3431-4A77-977F-CC1E7ABC166Ebg_frame" cx="15" cy="15" r="15" stroke="#a0522d" fill="url(#_FAB1D30D-3431-4A77-977F-CC1E7ABC166Ebackground) white" stroke-width="1" style="stroke-dasharray: 5.5, 3"/>
    	
    <circle id="_FAB1D30D-3431-4A77-977F-CC1E7ABC166Eframe" cx="15" cy="15" r="12" stroke="#a0522d" fill="none" stroke-width="1" style="stroke-dasharray: 4.5, 3" display="inherit"/>
    
    <circle id="_FAB1D30D-3431-4A77-977F-CC1E7ABC166Eframe2" cx="15" cy="15" r="15" stroke="#a0522d" fill="none" stroke-width="1" display="inherit"/>
    <circle id="_FAB1D30D-3431-4A77-977F-CC1E7ABC166Eframe3" cx="15" cy="15" r="12" stroke="#a0522d" fill="none" stroke-width="1"/>
    
    <circle id="_FAB1D30D-3431-4A77-977F-CC1E7ABC166Eframe4" cx="15" cy="15" r="10" stroke="#a0522d" fill="none" stroke-width="1"/>
    <path id="_FAB1D30D-3431-4A77-977F-CC1E7ABC166Eframe5" d=" M15 5  L15 8  M20 6  L18.5 9  M24 10  L21 11.5  M25 15  L22 15  M24 20  L21 18.5  M20 24  L18.5 21  M15 25  L15 22  M10 24  L11.5 21  M6 20  L9 18.5  M5 15  L8 15  M6 10  L9 11.5  M10 6  L11.5 9  M17 8  L15 15  L19 15 " fill="none" stroke="#a0522d"/>
	<text font-size="11" id="_FAB1D30D-3431-4A77-977F-CC1E7ABC166Etext_name" x="15" y="32" oryx:align="top center" stroke="black" stroke-width="0pt" letter-spacing="-0.01px" fill="#000000" text-anchor="middle" transform="rotate(0 15 32)" visibility="inherit" oryx:fontSize="11"/>
  </g></g><g class="children" style="overflow:hidden"/><g class="edge"/></g><g class="controls"><g class="dockers"/><g class="magnets" transform="translate(395, 201)"><g pointer-events="all" display="none" transform="translate(7, 7)"><circle cx="8" cy="8" r="4" stroke="none" fill="red" fill-opacity="0.3"/></g></g></g></g><g id="_4B209AFC-4E89-494A-AB31-9A3B7DB0F0E9"><g class="stencils" transform="translate(470, 176)"><g class="me"><g pointer-events="fill" oryx:minimumSize="50 40" id="_4B209AFC-4E89-494A-AB31-9A3B7DB0F0E9" title="Task">
  	<defs id="_4B209AFC-4E89-494A-AB31-9A3B7DB0F0E9__4B209AFC-4E89-494A-AB31-9A3B7DB0F0E9_17">
		<radialGradient id="_4B209AFC-4E89-494A-AB31-9A3B7DB0F0E9background" cx="10%" cy="10%" r="100%" fx="10%" fy="10%">
			<stop offset="0%" stop-color="#ffffff" stop-opacity="1" id="_4B209AFC-4E89-494A-AB31-9A3B7DB0F0E9__4B209AFC-4E89-494A-AB31-9A3B7DB0F0E9_18"/>
			<stop id="_4B209AFC-4E89-494A-AB31-9A3B7DB0F0E9fill_el" offset="100%" stop-color="#fafad2" stop-opacity="1"/>
		</radialGradient>
		<radialGradient id="_4B209AFC-4E89-494A-AB31-9A3B7DB0F0E9borderbackground" cx="10%" cy="10%" r="100%" fx="10%" fy="10%">
			<stop offset="0%" stop-color="#ffffff" stop-opacity="1" id="_4B209AFC-4E89-494A-AB31-9A3B7DB0F0E9__4B209AFC-4E89-494A-AB31-9A3B7DB0F0E9_19"/>
			<stop id="_4B209AFC-4E89-494A-AB31-9A3B7DB0F0E9fill_border" offset="100%" stop-color="#000000" stop-opacity="1" stroke="#000000"/>
		</radialGradient>
	</defs>
	
	<rect id="_4B209AFC-4E89-494A-AB31-9A3B7DB0F0E9text_frame" oryx:anchors="bottom top right left" x="1" y="1" width="94" height="79" rx="10" ry="10" stroke="none" stroke-width="0" fill="none"/>
	<rect id="_4B209AFC-4E89-494A-AB31-9A3B7DB0F0E9bg_frame" oryx:resize="vertical horizontal" x="0" y="0" width="100" height="80" rx="10" ry="10" stroke="#000000" stroke-width="1" fill="url(#_4B209AFC-4E89-494A-AB31-9A3B7DB0F0E9background) #ffffcc"/>
		<text font-size="12" id="_4B209AFC-4E89-494A-AB31-9A3B7DB0F0E9text_name" x="50" y="40" oryx:align="middle center" oryx:fittoelem="text_frame" stroke="black" stroke-width="0pt" letter-spacing="-0.01px" fill="#000000" text-anchor="middle" transform="rotate(0 50 40)" visibility="inherit" oryx:fontSize="12"><tspan x="50" y="40" dy="5">second</tspan></text>
    <g id="_4B209AFC-4E89-494A-AB31-9A3B7DB0F0E9manualTask" transform="scale(0.7,0.7) translate(8,8)" display="none">
    	<path oryx:anchors="top left" id="_4B209AFC-4E89-494A-AB31-9A3B7DB0F0E9frame" style="opacity:1;fill:none;fill-opacity:1;stroke-width:1" d="M0.5,3.751l4.083-3.25c0,0,11.166,0.083,12.083,0.083s-2.417,2.917-1.5,2.917     s11.667,0,12.584,0c1.166,1.708-0.168,3.167-0.834,3.667s0.875,1.917-1,4.417c-0.75,0.25,0.75,1.875-1.333,3.333     c-1.167,0.583,0.583,1.542-1.25,2.833c-1.167,0-20.833,0.083-20.833,0.083l-2-1.333V3.751z" stroke="#000000"/>
		<path id="_4B209AFC-4E89-494A-AB31-9A3B7DB0F0E9frame2" oryx:anchors="top left" style="opacity:1;fill:none;stroke-width:2" d="M 13.5 7 L 27 7" stroke="#000000"/>
		<path id="_4B209AFC-4E89-494A-AB31-9A3B7DB0F0E9frame3" oryx:anchors="top left" style="opacity:1;fill:none;stroke-width:2" d="M 13.5 11 L 26 11" stroke="#000000"/>
		<path id="_4B209AFC-4E89-494A-AB31-9A3B7DB0F0E9frame4" oryx:anchors="top left" style="opacity:1;fill:none;stroke-width:1.5" d="M 14 14.5 L 25 14.5" stroke="#000000"/>
		<path id="_4B209AFC-4E89-494A-AB31-9A3B7DB0F0E9frame5" oryx:anchors="top left" style="opacity:1;fill:none;stroke-width:1.5" d="M 8.2 3.1 L 15 3.1" stroke="#000000"/>
	</g>
	
	<g id="_4B209AFC-4E89-494A-AB31-9A3B7DB0F0E9businessRuleTask" transform="scale(0.7,0.7) translate(8,8)" display="none">
		<rect id="_4B209AFC-4E89-494A-AB31-9A3B7DB0F0E9frame6" oryx:anchors="top left" x="0" y="0" width="22" height="4" style="opacity:1;fill:#B3B1B3;fill-opacity:1;" stroke="#000000"/>
		<rect id="_4B209AFC-4E89-494A-AB31-9A3B7DB0F0E9frame7" oryx:anchors="top left" x="0" y="4" style="opacity:1;fill:none;" width="22" height="12" stroke="#000000"/>
		<path id="_4B209AFC-4E89-494A-AB31-9A3B7DB0F0E9frame8" oryx:anchors="top left" style="opacity:1;fill:none;" d="M 0 10 L 22 10" stroke="#000000"/>
		<path id="_4B209AFC-4E89-494A-AB31-9A3B7DB0F0E9frame9" oryx:anchors="top left" style="opacity:1; fill:none;" d="M 7 4 L 7 16" stroke="#000000"/>
	</g>
	
	<g id="_4B209AFC-4E89-494A-AB31-9A3B7DB0F0E9scriptTask" transform="scale(0.7,0.7) translate(8,8)" display="none">
		<path oryx:anchors="top left" id="_4B209AFC-4E89-494A-AB31-9A3B7DB0F0E9frame10" style="opacity:1;fill:none;" stroke="#000000" d="M6.402,0.5h14.5c0,0-5.833,2.833-5.833,5.583s4.417,6,4.417,9.167    s-4.167,5.083-4.167,5.083H0.235c0,0,5-2.667,5-5s-4.583-6.75-4.583-9.25S6.402,0.5,6.402,0.5z"/>
		<path oryx:anchors="top left" id="_4B209AFC-4E89-494A-AB31-9A3B7DB0F0E9frame11" style="opacity:1;fill:none;stroke-width:1.5" d="M 3.5 4.5 L 13.5 4.5" stroke="#000000"/>
		<path oryx:anchors="top left" id="_4B209AFC-4E89-494A-AB31-9A3B7DB0F0E9frame12" style="opacity:1;fill:none;stroke-width:1.5" d="M 3.8 8.5 L 13.8 8.5" stroke="#000000"/>
		<path oryx:anchors="top left" id="_4B209AFC-4E89-494A-AB31-9A3B7DB0F0E9frame13" style="opacity:1;fill:none;stroke-width:1.5" d="M 6.3 12.5 L 16.3 12.5" stroke="#000000"/>
		<path oryx:anchors="top left" id="_4B209AFC-4E89-494A-AB31-9A3B7DB0F0E9frame14" style="opacity:1;fill:none;stroke-width:1.5" d="M 6.5 16.5 L 16.5 16.5" stroke="#000000"/>
	</g>
	
	<g id="_4B209AFC-4E89-494A-AB31-9A3B7DB0F0E9userTask" transform="scale(0.7,0.7) translate(8,8)" display="none">
		<path id="_4B209AFC-4E89-494A-AB31-9A3B7DB0F0E9frame15" oryx:anchors="top left" style="opacity:1;fill:#F4F6F7" stroke="#000000" d="M0.585,24.167h24.083v-7.833c0,0-2.333-3.917-7.083-5.167h-9.25    c-4.417,1.333-7.833,5.75-7.833,5.75L0.585,24.167z"/>
		<path id="_4B209AFC-4E89-494A-AB31-9A3B7DB0F0E9frame16" oryx:anchors="top left" style="opacity:1;fill:none" d="M 6 20 L 6 24" stroke="#000000"/>
		<path id="_4B209AFC-4E89-494A-AB31-9A3B7DB0F0E9frame17" oryx:anchors="top left" style="opacity:1;fill:none" d="M 20 20 L 20 24" stroke="#000000"/>
		<circle id="_4B209AFC-4E89-494A-AB31-9A3B7DB0F0E9frame18" oryx:anchors="top left" fill="black" cx="13.002" cy="5.916" r="5.417" stroke="#000000"/>
		<path id="_4B209AFC-4E89-494A-AB31-9A3B7DB0F0E9frame19" oryx:anchors="top left" style="opacity:1;fill:#F0EFF0;" stroke="#000000" d="M8.043,7.083c0,0,2.814-2.426,5.376-1.807s4.624-0.693,4.624-0.693    c0.25,1.688,0.042,3.75-1.458,5.584c0,0,1.083,0.75,1.083,1.5s0.125,1.875-1,3s-5.5,1.25-6.75,0S8.668,12.834,8.668,12    s0.583-1.25,1.25-1.917C8.835,9.5,7.419,7.708,8.043,7.083z"/>
	</g>
	
	<g id="_4B209AFC-4E89-494A-AB31-9A3B7DB0F0E9serviceTask" transform="scale(0.7,0.7) translate(8,8)" display="none">
		<polygon oryx:anchors="top left" id="_4B209AFC-4E89-494A-AB31-9A3B7DB0F0E9frame20" style="opacity:1;fill:#ffffff" stroke="#000000" points="15.392,5.064 17.954,2.502 20.347,4.895 17.786,7.455     18.729,9.732 22.353,9.732 22.353,13.115 18.731,13.115 17.788,15.392 20.351,17.955 17.958,20.347 15.397,17.786 13.12,18.729     13.12,22.353 9.737,22.353 9.737,18.731 7.46,17.788 4.897,20.35 2.506,17.958 5.066,15.397 4.124,13.12 0.5,13.12 0.5,9.737     4.121,9.737 5.065,7.461 2.503,4.898 4.895,2.506 7.455,5.066 9.732,4.125 9.732,0.5 13.116,0.5 13.116,4.121 "/>
		<circle oryx:anchors="top left" id="_4B209AFC-4E89-494A-AB31-9A3B7DB0F0E9frame21" style="opacity:1;fill:none" stroke="#000000" cx="11.427" cy="11.426" r="3.714"/>
		<polygon oryx:anchors="top left" id="_4B209AFC-4E89-494A-AB31-9A3B7DB0F0E9frame22" style="opacity:1;fill:#ffffff" stroke="#000000" points="21.392,11.064 23.954,8.502 26.347,10.895 23.786,13.455     24.729,15.732 28.353,15.732 28.353,19.115 24.731,19.115 23.788,21.392 26.351,23.955 23.958,26.347 21.397,23.786 19.12,24.729     19.12,28.353 15.737,28.353 15.737,24.731 13.46,23.788 10.897,26.35 8.506,23.958 11.066,21.397 10.124,19.12 6.5,19.12     6.5,15.737 10.121,15.737 11.065,13.461 8.503,10.898 10.895,8.506 13.455,11.066 15.732,10.125 15.732,6.5 19.116,6.5     19.116,10.121 "/>
		<circle oryx:anchors="top left" id="_4B209AFC-4E89-494A-AB31-9A3B7DB0F0E9frame23" style="opacity:1;fill:none;" stroke="#000000" cx="17.427" cy="17.426" r="3.714"/>
	</g>
	
	<g id="_4B209AFC-4E89-494A-AB31-9A3B7DB0F0E9sendTask" display="none">
		<path id="_4B209AFC-4E89-494A-AB31-9A3B7DB0F0E9frame24" oryx:anchors="left top" stroke="#000000" fill="black" stroke-width="1" d="M8,11 L8,21 L24,21 L24,11 L16,17z"/>
		<path id="_4B209AFC-4E89-494A-AB31-9A3B7DB0F0E9frame25" oryx:anchors="left top" stroke="#000000" fill="black" stroke-width="1" d="M7,10 L16,17 L25 10z"/>
	</g>
	
	<g id="_4B209AFC-4E89-494A-AB31-9A3B7DB0F0E9receiveTask" display="none">
		<path id="_4B209AFC-4E89-494A-AB31-9A3B7DB0F0E9frame26" oryx:anchors="left top" stroke="#000000" fill="none" stroke-width="1" d="M8,11 L8,21 L24,21 L24,11z M8,11 L16,17 L24,11"/>
	</g>
	
	<g id="_4B209AFC-4E89-494A-AB31-9A3B7DB0F0E9none" display="inherit"/>
  </g></g><g class="children" style="overflow:hidden"/><g class="edge"/></g><g class="controls"><g class="dockers"/><g class="magnets" transform="translate(470, 176)"><g pointer-events="all" display="none" transform="translate(-7, 12)"><circle cx="8" cy="8" r="4" stroke="none" fill="red" fill-opacity="0.3"/></g><g pointer-events="all" display="none" transform="translate(-7, 32)"><circle cx="8" cy="8" r="4" stroke="none" fill="red" fill-opacity="0.3"/></g><g pointer-events="all" display="none" transform="translate(-7, 52)"><circle cx="8" cy="8" r="4" stroke="none" fill="red" fill-opacity="0.3"/></g><g pointer-events="all" display="none" transform="translate(17, 71)"><circle cx="8" cy="8" r="4" stroke="none" fill="red" fill-opacity="0.3"/></g><g pointer-events="all" display="none" transform="translate(42, 71)"><circle cx="8" cy="8" r="4" stroke="none" fill="red" fill-opacity="0.3"/></g><g pointer-events="all" display="none" transform="translate(67, 71)"><circle cx="8" cy="8" r="4" stroke="none" fill="red" fill-opacity="0.3"/></g><g pointer-events="all" display="none" transform="translate(91, 12)"><circle cx="8" cy="8" r="4" stroke="none" fill="red" fill-opacity="0.3"/></g><g pointer-events="all" display="none" transform="translate(91, 32)"><circle cx="8" cy="8" r="4" stroke="none" fill="red" fill-opacity="0.3"/></g><g pointer-events="all" display="none" transform="translate(91, 52)"><circle cx="8" cy="8" r="4" stroke="none" fill="red" fill-opacity="0.3"/></g><g pointer-events="all" display="none" transform="translate(17, -7)"><circle cx="8" cy="8" r="4" stroke="none" fill="red" fill-opacity="0.3"/></g><g pointer-events="all" display="none" transform="translate(42, -7)"><circle cx="8" cy="8" r="4" stroke="none" fill="red" fill-opacity="0.3"/></g><g pointer-events="all" display="none" transform="translate(67, -7)"><circle cx="8" cy="8" r="4" stroke="none" fill="red" fill-opacity="0.3"/></g><g pointer-events="all" display="none" transform="translate(42, 32)"><circle cx="8" cy="8" r="4" stroke="none" fill="red" fill-opacity="0.3"/></g></g></g></g><g id="_0D086CE1-1180-4C64-943F-99257F1C5DE3"><g class="stencils" transform="translate(614, 201)"><g class="me"><g pointer-events="fill" id="_0D086CE1-1180-4C64-943F-99257F1C5DE3" title="End Event">

    <defs id="_0D086CE1-1180-4C64-943F-99257F1C5DE3__0D086CE1-1180-4C64-943F-99257F1C5DE3_5">
		<radialGradient id="_0D086CE1-1180-4C64-943F-99257F1C5DE3background" cx="10%" cy="10%" r="100%" fx="10%" fy="10%">
			<stop offset="0%" stop-color="#ffffff" stop-opacity="1" id="_0D086CE1-1180-4C64-943F-99257F1C5DE3__0D086CE1-1180-4C64-943F-99257F1C5DE3_6"/>
			<stop id="_0D086CE1-1180-4C64-943F-99257F1C5DE3fill_el" offset="100%" stop-color="#ff6347" stop-opacity="1"/>
		</radialGradient>
	</defs>
	
    <circle id="_0D086CE1-1180-4C64-943F-99257F1C5DE3bg_frame" cx="15" cy="15" r="14" stroke="#000000" fill="url(#_0D086CE1-1180-4C64-943F-99257F1C5DE3background) white" stroke-width="3"/>
	<text font-size="11" id="_0D086CE1-1180-4C64-943F-99257F1C5DE3text_name" x="14" y="30" oryx:align="top center" stroke="black" stroke-width="0pt" letter-spacing="-0.01px" fill="#000000" text-anchor="middle" transform="rotate(0 14 30)" visibility="inherit" oryx:fontSize="11"/>
  </g></g><g class="children" style="overflow:hidden"/><g class="edge"/></g><g class="controls"><g class="dockers"/><g class="magnets" transform="translate(614, 201)"><g pointer-events="all" display="none" transform="translate(6, 6)"><circle cx="8" cy="8" r="4" stroke="none" fill="red" fill-opacity="0.3"/></g></g></g></g></g><g class="edge"><g id="_26F20236-C097-4F61-A5B5-1BC4878E8EC4"><g class="stencils"><g class="me" title="Sequence Flow"><g pointer-events="painted"><path id="_26F20236-C097-4F61-A5B5-1BC4878E8EC4_1" d="M205.609375 216L249.15625 216 " stroke="#000000" fill="none" stroke-width="2" stroke-linecap="round" stroke-linejoin="round" marker-start="url(#_26F20236-C097-4F61-A5B5-1BC4878E8EC4start)" marker-end="url(#_26F20236-C097-4F61-A5B5-1BC4878E8EC4end)"/><path id="undefined" d="M205.609375 216L249.15625 216 " stroke="black" fill="none" stroke-width="10" stroke-linecap="round" stroke-linejoin="round" marker-start="url(#_26F20236-C097-4F61-A5B5-1BC4878E8EC4start)" marker-end="url(#_26F20236-C097-4F61-A5B5-1BC4878E8EC4end)" visibility="hidden" stroke-dasharray="none"/></g><text id="_26F20236-C097-4F61-A5B5-1BC4878E8EC4text_name" font-size="12" x="219.609375" y="202" oryx:edgePosition="startTop" stroke-width="0pt" letter-spacing="-0.01px" fill="#000000" text-anchor="start" transform="rotate(360 205.609375 216)" visibility="inherit" oryx:fontSize="12"/></g><g class="children" style="overflow:hidden"/><g class="edge"/></g><g class="controls"><g class="dockers"><g visibility="hidden"><g pointer-events="all" transform="translate(197.609375, 208)"><circle cx="8" cy="8" r="8" stroke="none" fill="none"/><circle cx="8" cy="8" r="3" stroke="black" fill="#00FF00" stroke-width="1"/></g><g pointer-events="none" transform="translate(190, 216)"><circle cx="0" cy="0" r="3" fill="red" fill-opacity="0.4"/></g></g><g visibility="hidden"><g pointer-events="all" transform="translate(241.15625, 208)"><circle cx="8" cy="8" r="8" stroke="none" fill="none"/><circle cx="8" cy="8" r="3" stroke="black" fill="#00FF00" stroke-width="1"/></g><g pointer-events="none" transform="translate(300, 216)"><circle cx="0" cy="0" r="3" fill="red" fill-opacity="0.4"/></g></g></g><g class="magnets"/></g></g><g id="_3196F911-D4E2-45A5-8A85-CA05A2100015"><g class="stencils"><g class="me" title="Sequence Flow"><g pointer-events="painted"><path id="_3196F911-D4E2-45A5-8A85-CA05A2100015_1" d="M350.84375 216L394.390625 216 " stroke="#000000" fill="none" stroke-width="2" stroke-linecap="round" stroke-linejoin="round" marker-start="url(#_3196F911-D4E2-45A5-8A85-CA05A2100015start)" marker-end="url(#_3196F911-D4E2-45A5-8A85-CA05A2100015end)"/><path id="undefined" d="M350.84375 216L394.390625 216 " stroke="black" fill="none" stroke-width="10" stroke-linecap="round" stroke-linejoin="round" marker-start="url(#_3196F911-D4E2-45A5-8A85-CA05A2100015start)" marker-end="url(#_3196F911-D4E2-45A5-8A85-CA05A2100015end)" visibility="hidden" stroke-dasharray="none"/></g><text id="_3196F911-D4E2-45A5-8A85-CA05A2100015text_name" font-size="12" x="364.84375" y="202" oryx:edgePosition="startTop" stroke-width="0pt" letter-spacing="-0.01px" fill="#000000" text-anchor="start" transform="rotate(360 350.84375 216)" visibility="inherit" oryx:fontSize="12"/></g><g class="children" style="overflow:hidden"/><g class="edge"/></g><g class="controls"><g class="dockers"><g visibility="hidden"><g pointer-events="all" transform="translate(342.84375, 208)"><circle cx="8" cy="8" r="8" stroke="none" fill="none"/><circle cx="8" cy="8" r="3" stroke="black" fill="#00FF00" stroke-width="1"/></g><g pointer-events="none" transform="translate(300, 216)"><circle cx="0" cy="0" r="3" fill="red" fill-opacity="0.4"/></g></g><g visibility="hidden"><g pointer-events="all" transform="translate(386.390625, 208)"><circle cx="8" cy="8" r="8" stroke="none" fill="none"/><circle cx="8" cy="8" r="3" stroke="black" fill="#00FF00" stroke-width="1"/></g><g pointer-events="none" transform="translate(410, 216)"><circle cx="0" cy="0" r="3" fill="red" fill-opacity="0.4"/></g></g></g><g class="magnets"/></g></g><g id="_30E1BE02-2E74-4CBB-8C21-664524465E01"><g class="stencils"><g class="me" title="Sequence Flow"><g pointer-events="painted"><path id="_30E1BE02-2E74-4CBB-8C21-664524465E01_1" d="M425.609375 216L469.15625 216 " stroke="#000000" fill="none" stroke-width="2" stroke-linecap="round" stroke-linejoin="round" marker-start="url(#_30E1BE02-2E74-4CBB-8C21-664524465E01start)" marker-end="url(#_30E1BE02-2E74-4CBB-8C21-664524465E01end)"/><path id="undefined" d="M425.609375 216L469.15625 216 " stroke="black" fill="none" stroke-width="10" stroke-linecap="round" stroke-linejoin="round" marker-start="url(#_30E1BE02-2E74-4CBB-8C21-664524465E01start)" marker-end="url(#_30E1BE02-2E74-4CBB-8C21-664524465E01end)" visibility="hidden" stroke-dasharray="none"/></g><text id="_30E1BE02-2E74-4CBB-8C21-664524465E01text_name" font-size="12" x="439.609375" y="202" oryx:edgePosition="startTop" stroke-width="0pt" letter-spacing="-0.01px" fill="#000000" text-anchor="start" transform="rotate(360 425.609375 216)" visibility="inherit" oryx:fontSize="12"/></g><g class="children" style="overflow:hidden"/><g class="edge"/></g><g class="controls"><g class="dockers"><g visibility="hidden"><g pointer-events="all" transform="translate(417.609375, 208)"><circle cx="8" cy="8" r="8" stroke="none" fill="none" id="ext-gen720"/><circle cx="8" cy="8" r="3" stroke="black" fill="#00FF00" stroke-width="1"/></g><g pointer-events="none" transform="translate(410, 216)"><circle cx="0" cy="0" r="3" fill="red" fill-opacity="0.4"/></g></g><g visibility="hidden"><g pointer-events="all" transform="translate(461.15625, 208)"><circle cx="8" cy="8" r="8" stroke="none" fill="none"/><circle cx="8" cy="8" r="3" stroke="black" fill="#00FF00" stroke-width="1"/></g><g pointer-events="none" transform="translate(520, 216)"><circle cx="0" cy="0" r="3" fill="red" fill-opacity="0.4"/></g></g></g><g class="magnets"/></g></g><g id="_D8CA01C6-9544-4C09-A24D-E46C57923DED"><g class="stencils"><g class="me" title="Sequence Flow"><g pointer-events="painted"><path id="_D8CA01C6-9544-4C09-A24D-E46C57923DED_1" d="M570.7812071358152 215.52980363763135L614.3437928641848 215.12644636236865 " stroke="#000000" fill="none" stroke-width="2" stroke-linecap="round" stroke-linejoin="round" marker-start="url(#_D8CA01C6-9544-4C09-A24D-E46C57923DEDstart)" marker-end="url(#_D8CA01C6-9544-4C09-A24D-E46C57923DEDend)"/><path id="undefined" d="M570.7812071358152 215.52980363763135L614.3437928641848 215.12644636236865 " stroke="black" fill="none" stroke-width="10" stroke-linecap="round" stroke-linejoin="round" marker-start="url(#_D8CA01C6-9544-4C09-A24D-E46C57923DEDstart)" marker-end="url(#_D8CA01C6-9544-4C09-A24D-E46C57923DEDend)" visibility="hidden" stroke-dasharray="none"/></g><text id="_D8CA01C6-9544-4C09-A24D-E46C57923DEDtext_name" font-size="12" x="584.7812071358152" y="201.52980363763135" oryx:edgePosition="startTop" stroke-width="0pt" letter-spacing="-0.01px" fill="#000000" text-anchor="start" transform="rotate(359.46949868332615 570.7812071358152 215.52980363763135)" visibility="inherit" oryx:fontSize="12"/></g><g class="children" style="overflow:hidden"/><g class="edge"/></g><g class="controls"><g class="dockers"><g visibility="hidden"><g pointer-events="all" transform="translate(562.7812071358152, 207.52980363763135)"><circle cx="8" cy="8" r="8" stroke="none" fill="none" id="ext-gen694"/><circle cx="8" cy="8" r="3" stroke="black" fill="#00FF00" stroke-width="1"/></g><g pointer-events="none" transform="translate(520, 216)"><circle cx="0" cy="0" r="3" fill="red" fill-opacity="0.4"/></g></g><g visibility="hidden"><g pointer-events="all" transform="translate(606.3437928641848, 207.12644636236865)"><circle cx="8" cy="8" r="8" stroke="none" fill="none"/><circle cx="8" cy="8" r="3" stroke="black" fill="#00FF00" stroke-width="1"/></g><g pointer-events="none" transform="translate(628, 215)"><circle cx="0" cy="0" r="3" fill="red" fill-opacity="0.4"/></g></g></g><g class="magnets"/></g></g></g><path id="processFormP1" title="Edit Process Form" style="opacity:1;fill:#339966;stroke:#000000" d="M0.585,24.167h24.083v-7.833c0,0-2.333-3.917-7.083-5.167h-9.25 c-4.417,1.333-7.833,5.75-7.833,5.75L0.585,24.167z" onclick="ORYX.Plugins.CanvasTitle.editProcessForm()" transform="translate(10, 20)"/><path id="processFormP2" title="Edit Process Form" style="opacity:1;fill:none;stroke:#000000" d="M 6 20 L 6 24" onclick="ORYX.Plugins.CanvasTitle.editProcessForm()" transform="translate(10, 20)"/><path id="processFormP3" title="Edit Process Form" style="opacity:1;fill:none;stroke:#000000" d="M 20 20 L 20 24" onclick="ORYX.Plugins.CanvasTitle.editProcessForm()" transform="translate(10, 20)"/><circle id="processFormP4" title="Edit Process Form" fill="#000000" stroke="#000000" cx="13.002" cy="5.916" r="5.417" onclick="ORYX.Plugins.CanvasTitle.editProcessForm()" transform="translate(10, 20)"/><path id="processFormP5" title="Edit Process Form" style="opacity:1;fill:#FFCC99;stroke:#000000" d="M8.043,7.083c0,0,2.814-2.426,5.376-1.807s4.624-0.693,4.624-0.693 c0.25,1.688,0.042,3.75-1.458,5.584c0,0,1.083,0.75,1.083,1.5s0.125,1.875-1,3s-5.5,1.25-6.75,0S8.668,12.834,8.668,12 s0.583-1.25,1.25-1.917C8.835,9.5,7.419,7.708,8.043,7.083z" onclick="ORYX.Plugins.CanvasTitle.editProcessForm()" transform="translate(10, 20)"/><text id="_089AEF58-D56F-48B5-943D-0224672D6321" style="stroke-width:1;fill:rgb(177,194,214);font-family:arial;font-weight:bold" font-size="12" onclick="ORYX.Plugins.CanvasTitle.openTextualAnalysis()" onmouseover="ORYX.Plugins.CanvasTitle.addToolTip('_089AEF58-D56F-48B5-943D-0224672D6321')" transform="translate(40, 43)">newprocess-1.0 (processes.newprocess-1.0)</text></g><g class="svgcontainer"><g display="inherit" transform="translate(466, 172)"><rect x="0" y="0" stroke-width="1" stroke="#777777" fill="none" stroke-dasharray="2,2" pointer-events="none" width="108" height="88"/></g><g display="none"><path stroke-width="1" stroke="silver" fill="none" stroke-dasharray="5,5" pointer-events="none"/></g><g display="none"><path stroke-width="1" stroke="silver" fill="none" stroke-dasharray="5,5" pointer-events="none"/></g><g/></g></g></svg>